# Blender v2.91.0 OBJ File: ''
# www.blender.org
mtllib charginghandle.mtl
o ChargingHandle_Cube.068
v 0.319470 3.402293 -4.113460
v 0.319470 3.486111 -4.113460
v 0.319470 3.402293 -4.398334
v 0.319470 3.486111 -4.398334
v 0.902405 3.402293 -3.904521
v 0.902405 3.486111 -3.904521
v 0.902405 3.402293 -4.398334
v 0.902405 3.486111 -4.398334
v 0.319470 3.402293 -3.430693
v 0.319470 3.486111 -3.430693
v 0.370766 3.402293 -3.430693
v 0.370766 3.486111 -3.430693
v 0.370766 3.402293 -4.110140
v 0.370766 3.486111 -4.110140
v 0.319470 3.486111 -4.113460
v 0.319470 3.486111 -3.430693
v 0.370766 3.486111 -3.430693
v 0.370766 3.486111 -4.110140
v -0.309064 3.307593 0.009849
v -0.309064 3.580812 0.009849
v -0.309064 3.307593 -4.154667
v -0.309064 3.580812 -4.154667
v 0.301749 3.307593 0.009849
v 0.301749 3.580812 0.009849
v 0.301749 3.307593 -4.154667
v 0.301749 3.580812 -4.154667
v -0.868382 3.307593 -4.704009
v -0.868382 3.580812 -4.704009
v 0.861067 3.307593 -4.704009
v 0.861067 3.580812 -4.704009
v -0.307538 3.307593 -4.148183
v -0.868382 3.307593 -4.328433
v -0.465892 3.307593 -4.187035
v -0.611113 3.307593 -4.230867
v -0.747496 3.307593 -4.277539
v -0.868382 3.580812 -4.328433
v -0.307538 3.580812 -4.148183
v -0.747496 3.580812 -4.277539
v -0.611113 3.580812 -4.230867
v -0.465892 3.580812 -4.187035
v 0.861067 3.307593 -4.316572
v 0.337127 3.307593 -4.148183
v 0.748135 3.307593 -4.269028
v 0.620726 3.307593 -4.225426
v 0.485061 3.307593 -4.184478
v 0.337127 3.580812 -4.148183
v 0.861067 3.580812 -4.316572
v 0.485061 3.580812 -4.184478
v 0.620726 3.580812 -4.225426
v 0.748135 3.580812 -4.269028
v 0.818454 3.302361 -4.705026
v 0.818454 3.580223 -4.705026
v 0.855426 3.302361 -4.701385
v 0.855426 3.580223 -4.701385
v 0.890977 3.302361 -4.690600
v 0.890977 3.580223 -4.690600
v 0.923740 3.302361 -4.673088
v 0.923740 3.580223 -4.673088
v 0.952458 3.302361 -4.649520
v 0.952458 3.580223 -4.649520
v 0.976026 3.302361 -4.620802
v 0.976026 3.580223 -4.620802
v 0.993538 3.302361 -4.588038
v 0.993538 3.580223 -4.588038
v 1.004323 3.302361 -4.552488
v 1.004323 3.580223 -4.552488
v 1.007964 3.302361 -4.515516
v 1.007964 3.580223 -4.515516
v 1.004323 3.302361 -4.478545
v 1.004323 3.580223 -4.478545
v 0.993538 3.302361 -4.442994
v 0.993538 3.580223 -4.442994
v 0.976026 3.302361 -4.410230
v 0.976026 3.580223 -4.410230
v 0.952458 3.302361 -4.381513
v 0.952458 3.580223 -4.381513
v 0.923740 3.302361 -4.357944
v 0.923740 3.580223 -4.357944
v 0.890977 3.302361 -4.340432
v 0.890977 3.580223 -4.340432
v 0.855426 3.302361 -4.329648
v 0.855426 3.580223 -4.329648
v 0.818454 3.302361 -4.326006
v 0.818454 3.580223 -4.326006
v 0.781483 3.302361 -4.329648
v 0.781483 3.580223 -4.329648
v 0.745932 3.302361 -4.340432
v 0.745932 3.580223 -4.340432
v 0.713168 3.302361 -4.357944
v 0.713168 3.580223 -4.357944
v 0.684451 3.302361 -4.381513
v 0.684451 3.580223 -4.381513
v 0.660883 3.302361 -4.410230
v 0.660883 3.580223 -4.410230
v 0.643370 3.302361 -4.442994
v 0.643370 3.580223 -4.442994
v 0.632586 3.302361 -4.478545
v 0.632586 3.580223 -4.478545
v 0.628944 3.302361 -4.515516
v 0.628944 3.580223 -4.515516
v 0.632586 3.302361 -4.552488
v 0.632586 3.580223 -4.552488
v 0.643370 3.302361 -4.588039
v 0.643370 3.580223 -4.588039
v 0.660883 3.302361 -4.620802
v 0.660883 3.580223 -4.620802
v 0.684451 3.302361 -4.649520
v 0.684451 3.580223 -4.649520
v 0.713168 3.302361 -4.673088
v 0.713168 3.580223 -4.673088
v 0.745932 3.302361 -4.690600
v 0.745932 3.580223 -4.690600
v 0.781483 3.302361 -4.701385
v 0.781483 3.580223 -4.701385
v -0.828729 3.302361 -4.705026
v -0.828729 3.580223 -4.705026
v -0.791757 3.302361 -4.701385
v -0.791757 3.580223 -4.701385
v -0.756207 3.302361 -4.690600
v -0.756207 3.580223 -4.690600
v -0.723443 3.302361 -4.673088
v -0.723443 3.580223 -4.673088
v -0.694725 3.302361 -4.649520
v -0.694725 3.580223 -4.649520
v -0.671157 3.302361 -4.620802
v -0.671157 3.580223 -4.620802
v -0.653645 3.302361 -4.588038
v -0.653645 3.580223 -4.588038
v -0.642861 3.302361 -4.552488
v -0.642861 3.580223 -4.552488
v -0.639219 3.302361 -4.515516
v -0.639219 3.580223 -4.515516
v -0.642861 3.302361 -4.478545
v -0.642861 3.580223 -4.478545
v -0.653645 3.302361 -4.442994
v -0.653645 3.580223 -4.442994
v -0.671157 3.302361 -4.410230
v -0.671157 3.580223 -4.410230
v -0.694725 3.302361 -4.381513
v -0.694725 3.580223 -4.381513
v -0.723443 3.302361 -4.357944
v -0.723443 3.580223 -4.357944
v -0.756207 3.302361 -4.340432
v -0.756207 3.580223 -4.340432
v -0.791757 3.302361 -4.329648
v -0.791757 3.580223 -4.329648
v -0.828729 3.302361 -4.326006
v -0.828729 3.580223 -4.326006
v -0.865700 3.302361 -4.329648
v -0.865700 3.580223 -4.329648
v -0.901251 3.302361 -4.340432
v -0.901251 3.580223 -4.340432
v -0.934015 3.302361 -4.357944
v -0.934015 3.580223 -4.357944
v -0.962733 3.302361 -4.381513
v -0.962733 3.580223 -4.381513
v -0.986301 3.302361 -4.410230
v -0.986301 3.580223 -4.410230
v -1.003813 3.302361 -4.442994
v -1.003813 3.580223 -4.442994
v -1.014597 3.302361 -4.478545
v -1.014597 3.580223 -4.478545
v -1.018239 3.302361 -4.515516
v -1.018239 3.580223 -4.515516
v -1.014597 3.302361 -4.552488
v -1.014597 3.580223 -4.552488
v -1.003813 3.302361 -4.588039
v -1.003813 3.580223 -4.588039
v -0.986300 3.302361 -4.620802
v -0.986300 3.580223 -4.620802
v -0.962733 3.302361 -4.649520
v -0.962733 3.580223 -4.649520
v -0.934015 3.302361 -4.673088
v -0.934015 3.580223 -4.673088
v -0.901251 3.302361 -4.690600
v -0.901251 3.580223 -4.690600
v -0.865700 3.302361 -4.701385
v -0.865700 3.580223 -4.701385
vt 0.375000 0.000000
vt 0.625000 0.000000
vt 0.625000 0.250000
vt 0.375000 0.250000
vt 0.625000 0.500000
vt 0.375000 0.500000
vt 0.625000 0.750000
vt 0.375000 0.750000
vt 0.625000 1.000000
vt 0.375000 1.000000
vt 0.125000 0.500000
vt 0.125000 0.750000
vt 0.875000 0.500000
vt 0.875000 0.750000
vt 0.625000 0.000000
vt 0.375000 0.000000
vt 0.625000 0.000000
vt 0.375000 0.000000
vt 0.625000 0.000000
vt 0.375000 0.000000
vt 0.625000 0.000000
vt 0.625000 0.000000
vt 0.625000 0.000000
vt 0.625000 0.000000
vt 0.375000 0.000000
vt 0.625000 0.000000
vt 0.625000 0.250000
vt 0.375000 0.250000
vt 0.625000 0.500000
vt 0.375000 0.500000
vt 0.625000 0.750000
vt 0.375000 0.750000
vt 0.625000 1.000000
vt 0.375000 1.000000
vt 0.125000 0.500000
vt 0.125000 0.750000
vt 0.875000 0.500000
vt 0.875000 0.750000
vt 0.625000 0.500000
vt 0.875000 0.500000
vt 0.875000 0.668927
vt 0.857525 0.691818
vt 0.837811 0.712811
vt 0.816818 0.732525
vt 0.793927 0.750000
vt 0.700738 0.750000
vt 0.643118 0.780794
vt 0.636581 0.738419
vt 0.630442 0.695646
vt 0.625000 0.674262
vt 0.375000 0.250000
vt 0.625000 0.250000
vt 0.375000 0.500000
vt 0.375000 0.825738
vt 0.625000 0.825738
vt 0.625000 0.918927
vt 0.375000 0.918927
vt 0.375000 0.081073
vt 0.625000 0.081073
vt 0.625000 0.941818
vt 0.375000 0.941818
vt 0.625000 1.000000
vt 0.375000 1.000000
vt 0.375000 0.000000
vt 0.625000 0.000000
vt 0.625000 0.058182
vt 0.375000 0.058182
vt 0.375000 0.674262
vt 0.356882 0.780794
vt 0.363419 0.738419
vt 0.369558 0.695646
vt 0.125000 0.500000
vt 0.299262 0.750000
vt 0.206073 0.750000
vt 0.183182 0.732525
vt 0.162189 0.712811
vt 0.142475 0.691818
vt 0.125000 0.668927
vt 1.000000 0.500000
vt 1.000000 1.000000
vt 0.968750 1.000000
vt 0.968750 0.500000
vt 0.937500 1.000000
vt 0.937500 0.500000
vt 0.906250 1.000000
vt 0.906250 0.500000
vt 0.875000 1.000000
vt 0.875000 0.500000
vt 0.843750 1.000000
vt 0.843750 0.500000
vt 0.812500 1.000000
vt 0.812500 0.500000
vt 0.781250 1.000000
vt 0.781250 0.500000
vt 0.750000 1.000000
vt 0.750000 0.500000
vt 0.718750 1.000000
vt 0.718750 0.500000
vt 0.687500 1.000000
vt 0.687500 0.500000
vt 0.656250 1.000000
vt 0.656250 0.500000
vt 0.625000 1.000000
vt 0.625000 0.500000
vt 0.593750 1.000000
vt 0.593750 0.500000
vt 0.562500 1.000000
vt 0.562500 0.500000
vt 0.531250 1.000000
vt 0.531250 0.500000
vt 0.500000 1.000000
vt 0.500000 0.500000
vt 0.468750 1.000000
vt 0.468750 0.500000
vt 0.437500 1.000000
vt 0.437500 0.500000
vt 0.406250 1.000000
vt 0.406250 0.500000
vt 0.375000 1.000000
vt 0.375000 0.500000
vt 0.343750 1.000000
vt 0.343750 0.500000
vt 0.312500 1.000000
vt 0.312500 0.500000
vt 0.281250 1.000000
vt 0.281250 0.500000
vt 0.250000 1.000000
vt 0.250000 0.500000
vt 0.218750 1.000000
vt 0.218750 0.500000
vt 0.187500 1.000000
vt 0.187500 0.500000
vt 0.156250 1.000000
vt 0.156250 0.500000
vt 0.125000 1.000000
vt 0.125000 0.500000
vt 0.093750 1.000000
vt 0.093750 0.500000
vt 0.062500 1.000000
vt 0.062500 0.500000
vt 0.296822 0.485388
vt 0.250000 0.490000
vt 0.203179 0.485389
vt 0.158156 0.471731
vt 0.116663 0.449553
vt 0.080295 0.419706
vt 0.050447 0.383337
vt 0.028269 0.341844
vt 0.014612 0.296822
vt 0.010000 0.250000
vt 0.014611 0.203179
vt 0.028269 0.158156
vt 0.050447 0.116663
vt 0.080294 0.080294
vt 0.116663 0.050447
vt 0.158156 0.028269
vt 0.203178 0.014612
vt 0.250000 0.010000
vt 0.296822 0.014612
vt 0.341844 0.028269
vt 0.383337 0.050447
vt 0.419706 0.080294
vt 0.449553 0.116663
vt 0.471731 0.158156
vt 0.485388 0.203178
vt 0.490000 0.250000
vt 0.485388 0.296822
vt 0.471731 0.341844
vt 0.449553 0.383337
vt 0.419706 0.419706
vt 0.383337 0.449553
vt 0.341844 0.471731
vt 0.031250 1.000000
vt 0.031250 0.500000
vt 0.000000 1.000000
vt 0.000000 0.500000
vt 0.750000 0.490000
vt 0.796822 0.485388
vt 0.841844 0.471731
vt 0.883337 0.449553
vt 0.919706 0.419706
vt 0.949553 0.383337
vt 0.971731 0.341844
vt 0.985388 0.296822
vt 0.990000 0.250000
vt 0.985388 0.203178
vt 0.971731 0.158156
vt 0.949553 0.116663
vt 0.919706 0.080294
vt 0.883337 0.050447
vt 0.841844 0.028269
vt 0.796822 0.014612
vt 0.750000 0.010000
vt 0.703178 0.014612
vt 0.658156 0.028269
vt 0.616663 0.050447
vt 0.580294 0.080294
vt 0.550447 0.116663
vt 0.528269 0.158156
vt 0.514611 0.203179
vt 0.510000 0.250000
vt 0.514612 0.296822
vt 0.528269 0.341844
vt 0.550447 0.383337
vt 0.580295 0.419706
vt 0.616663 0.449553
vt 0.658156 0.471731
vt 0.703179 0.485389
vt 1.000000 0.500000
vt 1.000000 1.000000
vt 0.968750 1.000000
vt 0.968750 0.500000
vt 0.937500 1.000000
vt 0.937500 0.500000
vt 0.906250 1.000000
vt 0.906250 0.500000
vt 0.875000 1.000000
vt 0.875000 0.500000
vt 0.843750 1.000000
vt 0.843750 0.500000
vt 0.812500 1.000000
vt 0.812500 0.500000
vt 0.781250 1.000000
vt 0.781250 0.500000
vt 0.750000 1.000000
vt 0.750000 0.500000
vt 0.718750 1.000000
vt 0.718750 0.500000
vt 0.687500 1.000000
vt 0.687500 0.500000
vt 0.656250 1.000000
vt 0.656250 0.500000
vt 0.625000 1.000000
vt 0.625000 0.500000
vt 0.593750 1.000000
vt 0.593750 0.500000
vt 0.562500 1.000000
vt 0.562500 0.500000
vt 0.531250 1.000000
vt 0.531250 0.500000
vt 0.500000 1.000000
vt 0.500000 0.500000
vt 0.468750 1.000000
vt 0.468750 0.500000
vt 0.437500 1.000000
vt 0.437500 0.500000
vt 0.406250 1.000000
vt 0.406250 0.500000
vt 0.375000 1.000000
vt 0.375000 0.500000
vt 0.343750 1.000000
vt 0.343750 0.500000
vt 0.312500 1.000000
vt 0.312500 0.500000
vt 0.281250 1.000000
vt 0.281250 0.500000
vt 0.250000 1.000000
vt 0.250000 0.500000
vt 0.218750 1.000000
vt 0.218750 0.500000
vt 0.187500 1.000000
vt 0.187500 0.500000
vt 0.156250 1.000000
vt 0.156250 0.500000
vt 0.125000 1.000000
vt 0.125000 0.500000
vt 0.093750 1.000000
vt 0.093750 0.500000
vt 0.062500 1.000000
vt 0.062500 0.500000
vt 0.296822 0.485388
vt 0.250000 0.490000
vt 0.203179 0.485389
vt 0.158156 0.471731
vt 0.116663 0.449553
vt 0.080295 0.419706
vt 0.050447 0.383337
vt 0.028269 0.341844
vt 0.014612 0.296822
vt 0.010000 0.250000
vt 0.014611 0.203179
vt 0.028269 0.158156
vt 0.050447 0.116663
vt 0.080294 0.080294
vt 0.116663 0.050447
vt 0.158156 0.028269
vt 0.203178 0.014612
vt 0.250000 0.010000
vt 0.296822 0.014612
vt 0.341844 0.028269
vt 0.383337 0.050447
vt 0.419706 0.080294
vt 0.449553 0.116663
vt 0.471731 0.158156
vt 0.485388 0.203178
vt 0.490000 0.250000
vt 0.485388 0.296822
vt 0.471731 0.341844
vt 0.449553 0.383337
vt 0.419706 0.419706
vt 0.383337 0.449553
vt 0.341844 0.471731
vt 0.031250 1.000000
vt 0.031250 0.500000
vt 0.000000 1.000000
vt 0.000000 0.500000
vt 0.750000 0.490000
vt 0.796822 0.485388
vt 0.841844 0.471731
vt 0.883337 0.449553
vt 0.919706 0.419706
vt 0.949553 0.383337
vt 0.971731 0.341844
vt 0.985388 0.296822
vt 0.990000 0.250000
vt 0.985388 0.203178
vt 0.971731 0.158156
vt 0.949553 0.116663
vt 0.919706 0.080294
vt 0.883337 0.050447
vt 0.841844 0.028269
vt 0.796822 0.014612
vt 0.750000 0.010000
vt 0.703178 0.014612
vt 0.658156 0.028269
vt 0.616663 0.050447
vt 0.580294 0.080294
vt 0.550447 0.116663
vt 0.528269 0.158156
vt 0.514611 0.203179
vt 0.510000 0.250000
vt 0.514612 0.296822
vt 0.528269 0.341844
vt 0.550447 0.383337
vt 0.580295 0.419706
vt 0.616663 0.449553
vt 0.658156 0.471731
vt 0.703179 0.485389
vn -1.0000 0.0000 0.0000
vn 0.0000 0.0000 -1.0000
vn 1.0000 0.0000 0.0000
vn -0.3374 0.0000 0.9414
vn 0.0000 -1.0000 0.0000
vn 0.0000 1.0000 0.0000
vn 0.0000 0.0000 1.0000
vn -0.2383 0.0000 0.9712
vn -0.2890 0.0000 0.9573
vn -0.3238 0.0000 0.9461
vn -0.3880 0.0000 0.9217
vn 0.2383 0.0000 0.9712
vn 0.2890 0.0000 0.9573
vn 0.3238 0.0000 0.9461
vn 0.3880 0.0000 0.9217
vn 0.0980 0.0000 -0.9952
vn 0.2903 0.0000 -0.9569
vn 0.4714 0.0000 -0.8819
vn 0.6344 0.0000 -0.7730
vn 0.7730 0.0000 -0.6344
vn 0.8819 0.0000 -0.4714
vn 0.9569 0.0000 -0.2903
vn 0.9952 0.0000 -0.0980
vn 0.9952 0.0000 0.0980
vn 0.9569 0.0000 0.2903
vn 0.8819 0.0000 0.4714
vn 0.7730 0.0000 0.6344
vn 0.6344 0.0000 0.7730
vn 0.4714 0.0000 0.8819
vn 0.2903 0.0000 0.9569
vn 0.0980 0.0000 0.9952
vn -0.0980 0.0000 0.9952
vn -0.2903 0.0000 0.9569
vn -0.4714 0.0000 0.8819
vn -0.6344 0.0000 0.7730
vn -0.7730 0.0000 0.6344
vn -0.8819 0.0000 0.4714
vn -0.9569 0.0000 0.2903
vn -0.9952 0.0000 0.0980
vn -0.9952 0.0000 -0.0980
vn -0.9569 0.0000 -0.2903
vn -0.8819 0.0000 -0.4714
vn -0.7730 0.0000 -0.6344
vn -0.6344 0.0000 -0.7730
vn -0.4714 0.0000 -0.8819
vn -0.2903 0.0000 -0.9569
vn -0.0980 0.0000 -0.9952
usemtl None
s off
f 1/1/1 2/2/1 4/3/1 3/4/1
f 3/4/2 4/3/2 8/5/2 7/6/2
f 7/6/3 8/5/3 6/7/3 5/8/3
f 5/8/4 6/7/4 2/9/4 1/10/4
f 3/11/5 7/6/5 5/8/5 1/12/5
f 8/5/6 4/13/6 2/14/6 6/7/6
f 1/1/3 2/2/3 10/15/3 9/16/3
f 9/16/2 10/15/2 12/17/2 11/18/2
f 11/18/1 12/17/1 14/19/1 13/20/1
f 14/19/7 12/17/7 17/21/7 18/22/7
f 12/17/7 10/15/7 16/23/7 17/21/7
f 10/15/7 2/2/7 15/24/7 16/23/7
f 15/24/5 18/22/5 17/21/5 16/23/5
f 9/16/6 11/18/6 13/20/6 1/1/6
f 19/25/1 20/26/1 22/27/1 21/28/1
f 21/28/2 22/27/2 26/29/2 25/30/2
f 25/30/3 26/29/3 24/31/3 23/32/3
f 23/32/7 24/31/7 20/33/7 19/34/7
f 21/35/5 25/30/5 23/32/5 19/36/5
f 26/29/6 22/37/6 20/38/6 24/31/6
f 30/39/6 28/40/6 36/41/6 38/42/6 39/43/6 40/44/6 37/45/6 46/46/6 48/47/6 49/48/6 50/49/6 47/50/6
f 27/51/2 28/52/2 30/39/2 29/53/2
f 42/54/7 46/55/7 37/56/7 31/57/7
f 32/58/1 36/59/1 28/52/1 27/51/1
f 31/57/8 37/56/8 40/60/8 33/61/8
f 33/61/9 40/60/9 39/62/9 34/63/9
f 34/64/10 39/65/10 38/66/10 35/67/10
f 35/67/11 38/66/11 36/59/11 32/58/11
f 29/53/3 30/39/3 47/50/3 41/68/3
f 46/55/12 42/54/12 45/69/12 48/47/12
f 48/47/13 45/69/13 44/70/13 49/48/13
f 49/48/14 44/70/14 43/71/14 50/49/14
f 50/49/15 43/71/15 41/68/15 47/50/15
f 27/72/5 29/53/5 41/68/5 43/71/5 44/70/5 45/69/5 42/73/5 31/74/5 33/75/5 34/76/5 35/77/5 32/78/5
f 51/79/16 52/80/16 54/81/16 53/82/16
f 53/82/17 54/81/17 56/83/17 55/84/17
f 55/84/18 56/83/18 58/85/18 57/86/18
f 57/86/19 58/85/19 60/87/19 59/88/19
f 59/88/20 60/87/20 62/89/20 61/90/20
f 61/90/21 62/89/21 64/91/21 63/92/21
f 63/92/22 64/91/22 66/93/22 65/94/22
f 65/94/23 66/93/23 68/95/23 67/96/23
f 67/96/24 68/95/24 70/97/24 69/98/24
f 69/98/25 70/97/25 72/99/25 71/100/25
f 71/100/26 72/99/26 74/101/26 73/102/26
f 73/102/27 74/101/27 76/103/27 75/104/27
f 75/104/28 76/103/28 78/105/28 77/106/28
f 77/106/29 78/105/29 80/107/29 79/108/29
f 79/108/30 80/107/30 82/109/30 81/110/30
f 81/110/31 82/109/31 84/111/31 83/112/31
f 83/112/32 84/111/32 86/113/32 85/114/32
f 85/114/33 86/113/33 88/115/33 87/116/33
f 87/116/34 88/115/34 90/117/34 89/118/34
f 89/118/35 90/117/35 92/119/35 91/120/35
f 91/120/36 92/119/36 94/121/36 93/122/36
f 93/122/37 94/121/37 96/123/37 95/124/37
f 95/124/38 96/123/38 98/125/38 97/126/38
f 97/126/39 98/125/39 100/127/39 99/128/39
f 99/128/40 100/127/40 102/129/40 101/130/40
f 101/130/41 102/129/41 104/131/41 103/132/41
f 103/132/42 104/131/42 106/133/42 105/134/42
f 105/134/43 106/133/43 108/135/43 107/136/43
f 107/136/44 108/135/44 110/137/44 109/138/44
f 109/138/45 110/137/45 112/139/45 111/140/45
f 54/141/6 52/142/6 114/143/6 112/144/6 110/145/6 108/146/6 106/147/6 104/148/6 102/149/6 100/150/6 98/151/6 96/152/6 94/153/6 92/154/6 90/155/6 88/156/6 86/157/6 84/158/6 82/159/6 80/160/6 78/161/6 76/162/6 74/163/6 72/164/6 70/165/6 68/166/6 66/167/6 64/168/6 62/169/6 60/170/6 58/171/6 56/172/6
f 111/140/46 112/139/46 114/173/46 113/174/46
f 113/174/47 114/173/47 52/175/47 51/176/47
f 51/177/5 53/178/5 55/179/5 57/180/5 59/181/5 61/182/5 63/183/5 65/184/5 67/185/5 69/186/5 71/187/5 73/188/5 75/189/5 77/190/5 79/191/5 81/192/5 83/193/5 85/194/5 87/195/5 89/196/5 91/197/5 93/198/5 95/199/5 97/200/5 99/201/5 101/202/5 103/203/5 105/204/5 107/205/5 109/206/5 111/207/5 113/208/5
f 115/209/16 116/210/16 118/211/16 117/212/16
f 117/212/17 118/211/17 120/213/17 119/214/17
f 119/214/18 120/213/18 122/215/18 121/216/18
f 121/216/19 122/215/19 124/217/19 123/218/19
f 123/218/20 124/217/20 126/219/20 125/220/20
f 125/220/21 126/219/21 128/221/21 127/222/21
f 127/222/22 128/221/22 130/223/22 129/224/22
f 129/224/23 130/223/23 132/225/23 131/226/23
f 131/226/24 132/225/24 134/227/24 133/228/24
f 133/228/25 134/227/25 136/229/25 135/230/25
f 135/230/26 136/229/26 138/231/26 137/232/26
f 137/232/27 138/231/27 140/233/27 139/234/27
f 139/234/28 140/233/28 142/235/28 141/236/28
f 141/236/29 142/235/29 144/237/29 143/238/29
f 143/238/30 144/237/30 146/239/30 145/240/30
f 145/240/31 146/239/31 148/241/31 147/242/31
f 147/242/32 148/241/32 150/243/32 149/244/32
f 149/244/33 150/243/33 152/245/33 151/246/33
f 151/246/34 152/245/34 154/247/34 153/248/34
f 153/248/35 154/247/35 156/249/35 155/250/35
f 155/250/36 156/249/36 158/251/36 157/252/36
f 157/252/37 158/251/37 160/253/37 159/254/37
f 159/254/38 160/253/38 162/255/38 161/256/38
f 161/256/39 162/255/39 164/257/39 163/258/39
f 163/258/40 164/257/40 166/259/40 165/260/40
f 165/260/41 166/259/41 168/261/41 167/262/41
f 167/262/42 168/261/42 170/263/42 169/264/42
f 169/264/43 170/263/43 172/265/43 171/266/43
f 171/266/44 172/265/44 174/267/44 173/268/44
f 173/268/45 174/267/45 176/269/45 175/270/45
f 118/271/6 116/272/6 178/273/6 176/274/6 174/275/6 172/276/6 170/277/6 168/278/6 166/279/6 164/280/6 162/281/6 160/282/6 158/283/6 156/284/6 154/285/6 152/286/6 150/287/6 148/288/6 146/289/6 144/290/6 142/291/6 140/292/6 138/293/6 136/294/6 134/295/6 132/296/6 130/297/6 128/298/6 126/299/6 124/300/6 122/301/6 120/302/6
f 175/270/46 176/269/46 178/303/46 177/304/46
f 177/304/47 178/303/47 116/305/47 115/306/47
f 115/307/5 117/308/5 119/309/5 121/310/5 123/311/5 125/312/5 127/313/5 129/314/5 131/315/5 133/316/5 135/317/5 137/318/5 139/319/5 141/320/5 143/321/5 145/322/5 147/323/5 149/324/5 151/325/5 153/326/5 155/327/5 157/328/5 159/329/5 161/330/5 163/331/5 165/332/5 167/333/5 169/334/5 171/335/5 173/336/5 175/337/5 177/338/5
