# Blender v2.91.0 OBJ File: ''
# www.blender.org
mtllib magazine.mtl
o Magazine_Cube.002
v -0.328129 -2.873699 2.379027
v -0.403580 -2.911807 2.186383
v -0.381481 -2.884861 2.322603
v -0.403580 2.260114 1.715164
v -0.328129 2.260114 1.904461
v -0.381481 2.260114 1.849017
v -0.403580 -3.178412 0.595298
v -0.328129 -3.216435 0.403083
v -0.381481 -3.205298 0.459381
v -0.328129 2.260114 -0.095539
v -0.403580 2.260114 0.093651
v -0.381481 2.260114 -0.040127
v 0.403580 -2.911808 2.186383
v 0.328129 -2.873699 2.379027
v 0.381481 -2.884861 2.322603
v 0.328129 2.260114 1.904461
v 0.403580 2.260114 1.715164
v 0.381481 2.260114 1.849017
v 0.328129 -3.216435 0.403083
v 0.403580 -3.178412 0.595298
v 0.381481 -3.205298 0.459381
v 0.403580 2.260114 0.093651
v 0.328129 2.260114 -0.095539
v 0.381481 2.260114 -0.040127
v -0.328129 -2.341247 2.255606
v -0.403580 -2.371561 2.061921
v -0.381481 -2.350126 2.198876
v -0.328129 -1.870519 2.154766
v -0.403580 -1.900799 1.961301
v -0.381481 -1.879387 2.098101
v -0.328129 -1.399791 2.081090
v -0.403580 -1.429989 1.888147
v -0.381481 -1.408636 2.024579
v -0.328129 -0.929063 2.007415
v -0.403580 -0.959126 1.815336
v -0.381481 -0.937868 1.951156
v -0.328129 -0.458335 1.933739
v -0.403580 -0.488198 1.742939
v -0.381481 -0.467081 1.877855
v -0.328129 -0.122180 1.904461
v -0.403580 -0.122180 1.712425
v -0.381481 -0.122180 1.848215
v -0.328129 0.354279 1.904461
v -0.403580 0.354279 1.713510
v -0.381481 0.354279 1.848533
v -0.328129 0.830737 1.904461
v -0.403580 0.830737 1.714275
v -0.381481 0.830737 1.848757
v -0.328129 1.307196 1.904461
v -0.403580 1.307196 1.714782
v -0.381481 1.307196 1.848905
v -0.403580 1.783655 1.715070
v -0.328129 1.783655 1.904461
v -0.381481 1.783655 1.848990
v -0.328129 1.783655 -0.095539
v -0.403580 1.783655 0.093740
v -0.381481 1.783655 -0.040101
v -0.328129 1.307196 -0.095539
v -0.403580 1.307196 0.094015
v -0.381481 1.307196 -0.040020
v -0.328129 0.830737 -0.095539
v -0.403580 0.830737 0.094499
v -0.381481 0.830737 -0.039878
v -0.328129 0.354278 -0.095539
v -0.403580 0.354278 0.095229
v -0.381481 0.354278 -0.039665
v -0.328129 -0.122180 -0.095539
v -0.403580 -0.122180 0.096264
v -0.381481 -0.122180 -0.039361
v -0.328129 -0.767597 -0.042205
v -0.403580 -0.737759 0.148439
v -0.381481 -0.758858 0.013633
v -0.328129 -1.238325 0.031470
v -0.403580 -1.208296 0.223337
v -0.381481 -1.229530 0.087667
v -0.328129 -1.709054 0.105146
v -0.403580 -1.678900 0.297806
v -0.381481 -1.700222 0.161575
v -0.328129 -2.179781 0.178821
v -0.403580 -2.149561 0.371908
v -0.381481 -2.170930 0.235375
v -0.403580 -2.620274 0.472843
v -0.328129 -2.650510 0.279661
v -0.381481 -2.641654 0.336243
v 0.403580 1.783655 0.093740
v 0.328129 1.783655 -0.095539
v 0.381481 1.783655 -0.040101
v 0.403580 1.307196 0.094015
v 0.328129 1.307196 -0.095539
v 0.381481 1.307196 -0.040020
v 0.403580 0.830737 0.094499
v 0.328129 0.830737 -0.095539
v 0.381481 0.830737 -0.039878
v 0.403580 0.354278 0.095229
v 0.328129 0.354278 -0.095539
v 0.381481 0.354278 -0.039665
v 0.403580 -0.122180 0.096264
v 0.328129 -0.122180 -0.095539
v 0.381481 -0.122180 -0.039361
v 0.403580 -0.737759 0.148439
v 0.328129 -0.767597 -0.042205
v 0.381481 -0.758858 0.013633
v 0.403580 -1.208296 0.223337
v 0.328129 -1.238325 0.031470
v 0.381481 -1.229530 0.087667
v 0.403580 -1.678900 0.297806
v 0.328129 -1.709054 0.105146
v 0.381481 -1.700222 0.161575
v 0.403580 -2.149561 0.371908
v 0.328129 -2.179781 0.178821
v 0.381481 -2.170930 0.235375
v 0.328129 -2.650510 0.279661
v 0.403580 -2.620274 0.472843
v 0.381481 -2.641654 0.336243
v 0.328129 1.783655 1.904461
v 0.403580 1.783655 1.715070
v 0.381481 1.783655 1.848990
v 0.328129 1.307196 1.904461
v 0.403580 1.307196 1.714782
v 0.381481 1.307196 1.848905
v 0.328129 0.830737 1.904461
v 0.403580 0.830737 1.714275
v 0.381481 0.830737 1.848757
v 0.328129 0.354278 1.904461
v 0.403580 0.354278 1.713510
v 0.381481 0.354278 1.848533
v 0.328129 -0.122180 1.904461
v 0.403580 -0.122180 1.712425
v 0.381481 -0.122180 1.848215
v 0.328129 -0.458335 1.933739
v 0.403580 -0.488198 1.742939
v 0.381481 -0.467081 1.877855
v 0.328129 -0.929063 2.007415
v 0.403580 -0.959126 1.815336
v 0.381481 -0.937868 1.951156
v 0.328129 -1.399791 2.081090
v 0.403580 -1.429989 1.888147
v 0.381481 -1.408636 2.024579
v 0.328129 -1.870519 2.154766
v 0.403580 -1.900799 1.961301
v 0.381481 -1.879387 2.098101
v 0.403580 -2.371561 2.061921
v 0.328129 -2.341247 2.255606
v 0.381481 -2.350126 2.198876
v -0.328129 -3.439113 2.534766
v -0.403581 -3.477221 2.342122
v -0.381481 -3.450274 2.478342
v -0.403581 -3.743825 0.751037
v -0.328129 -3.781849 0.558822
v -0.381481 -3.770712 0.615121
v 0.403580 -3.477221 2.342122
v 0.328129 -3.439113 2.534766
v 0.381481 -3.450274 2.478342
v 0.328129 -3.781849 0.558822
v 0.403580 -3.743825 0.751037
v 0.381481 -3.770712 0.615121
vt 0.625000 0.523649
vt 0.627282 0.502309
vt 0.648369 0.500000
vt 0.851631 0.500000
vt 0.706052 0.335642
vt 0.875000 0.523649
vt 0.875000 0.726338
vt 0.868155 0.743070
vt 0.851631 0.750000
vt 0.648369 0.750000
vt 0.627282 0.747690
vt 0.625000 0.726338
vt 0.375000 0.524319
vt 0.397727 0.524442
vt 0.397727 0.725495
vt 0.375000 0.725626
vt 0.397727 0.024505
vt 0.420455 0.024478
vt 0.420455 0.225570
vt 0.397727 0.225558
vt 0.602273 0.023674
vt 0.625000 0.023662
vt 0.625000 0.226351
vt 0.602273 0.226340
vt 0.375000 0.773369
vt 0.397727 0.773369
vt 0.397727 0.976631
vt 0.375000 0.976631
vt 0.375000 0.273369
vt 0.397727 0.273369
vt 0.397727 0.476631
vt 0.375000 0.476631
vt 0.602273 0.773369
vt 0.625000 0.773369
vt 0.625000 0.976631
vt 0.602273 0.976631
vt 0.443182 0.024412
vt 0.443182 0.225624
vt 0.465909 0.024302
vt 0.465909 0.225725
vt 0.488636 0.024140
vt 0.488636 0.225879
vt 0.511364 0.024004
vt 0.511364 0.226025
vt 0.534091 0.023869
vt 0.534091 0.226154
vt 0.556818 0.023773
vt 0.556818 0.226245
vt 0.579545 0.023710
vt 0.579545 0.226306
vt 0.579545 0.273369
vt 0.602273 0.273369
vt 0.602273 0.476631
vt 0.579546 0.476631
vt 0.602273 0.523660
vt 0.602273 0.726326
vt 0.420455 0.524430
vt 0.420455 0.725522
vt 0.443182 0.524376
vt 0.443182 0.725588
vt 0.465909 0.524275
vt 0.465909 0.725698
vt 0.488636 0.524121
vt 0.488636 0.725860
vt 0.511364 0.523975
vt 0.511364 0.725995
vt 0.534091 0.523846
vt 0.534091 0.726131
vt 0.556818 0.523755
vt 0.556818 0.726227
vt 0.579545 0.523694
vt 0.579545 0.726290
vt 0.625000 0.273369
vt 0.625000 0.476631
vt 0.420455 0.273369
vt 0.420455 0.476631
vt 0.443182 0.273369
vt 0.443182 0.476631
vt 0.465909 0.273369
vt 0.465909 0.476631
vt 0.488636 0.273369
vt 0.488636 0.476631
vt 0.511364 0.273369
vt 0.511364 0.476631
vt 0.534091 0.273369
vt 0.534091 0.476631
vt 0.556818 0.273369
vt 0.556818 0.476631
vt 0.375000 0.725626
vt 0.375000 0.524319
vt 0.420455 0.773369
vt 0.420455 0.976631
vt 0.443182 0.773369
vt 0.443182 0.976631
vt 0.465909 0.773369
vt 0.465909 0.976631
vt 0.488636 0.773369
vt 0.488636 0.976631
vt 0.511364 0.773369
vt 0.511364 0.976631
vt 0.534091 0.773369
vt 0.534091 0.976631
vt 0.556818 0.773369
vt 0.556818 0.976631
vt 0.579545 0.773369
vt 0.579545 0.976631
vt 0.625000 1.000000
vt 0.602273 1.000000
vt 0.602273 0.000000
vt 0.625000 0.000000
vt 0.293948 0.335708
vt 0.397091 0.250000
vt 0.375000 0.225681
vt 0.372718 0.502374
vt 0.397091 0.500000
vt 0.373786 0.747620
vt 0.398804 0.750000
vt 0.397727 1.000000
vt 0.376601 1.000000
vt 0.376602 0.000000
vt 0.397727 0.000000
vt 0.375000 0.024374
vt 0.420455 1.000000
vt 0.399880 1.000000
vt 0.399880 0.000000
vt 0.420455 0.000000
vt 0.443182 1.000000
vt 0.422605 1.000000
vt 0.422605 0.000000
vt 0.443182 0.000000
vt 0.465909 1.000000
vt 0.445327 1.000000
vt 0.445327 0.000000
vt 0.465909 0.000000
vt 0.488636 1.000000
vt 0.468044 1.000000
vt 0.468044 0.000000
vt 0.488636 0.000000
vt 0.511364 1.000000
vt 0.490222 1.000000
vt 0.490222 0.000000
vt 0.511364 0.000000
vt 0.534091 1.000000
vt 0.534091 0.000000
vt 0.556818 1.000000
vt 0.556818 0.000000
vt 0.579545 1.000000
vt 0.579545 0.000000
vt 0.602273 0.250000
vt 0.579545 0.250000
vt 0.556818 0.250000
vt 0.534091 0.250000
vt 0.510828 0.250000
vt 0.487577 0.250000
vt 0.464843 0.250000
vt 0.442111 0.250000
vt 0.419381 0.250000
vt 0.602273 0.500000
vt 0.579545 0.500000
vt 0.556818 0.500000
vt 0.534091 0.500000
vt 0.510828 0.500000
vt 0.487577 0.500000
vt 0.464843 0.500000
vt 0.442111 0.500000
vt 0.419381 0.500000
vt 0.602273 0.750000
vt 0.579545 0.750000
vt 0.556818 0.750000
vt 0.534091 0.750000
vt 0.511364 0.750000
vt 0.489429 0.750000
vt 0.466977 0.750000
vt 0.444254 0.750000
vt 0.421530 0.750000
vt 0.125000 0.524319
vt 0.293948 0.335708
vt 0.148369 0.500000
vt 0.351631 0.500000
vt 0.372718 0.502374
vt 0.373786 0.747620
vt 0.351631 0.750000
vt 0.148369 0.750000
vt 0.131845 0.742861
vt 0.125000 0.725626
vt 0.375000 0.225681
vt 0.375000 0.024374
vt 0.375000 0.976631
vt 0.375000 0.773369
vt 0.376601 1.000000
vt 0.376602 0.000000
vt 0.375000 0.476631
vt 0.375000 0.273369
vn 0.0000 1.0000 0.0000
vn 1.0000 -0.0000 0.0000
vn -1.0000 0.0000 0.0000
vn 0.0000 0.2258 0.9742
vn 0.0000 -0.2131 -0.9770
vn 0.0000 0.0000 1.0000
vn 0.0000 0.0000 -1.0000
vn 0.0000 -0.2095 -0.9778
vn 0.0000 -0.1546 -0.9880
vn 0.0000 -0.0824 -0.9966
vn 0.0000 0.2095 0.9778
vn 0.0000 0.1546 0.9880
vn 0.0000 0.0868 0.9962
vn -0.7207 -0.0000 0.6933
vn -0.9867 -0.0000 0.1629
vn -0.7317 -0.1454 -0.6659
vn -0.9875 -0.0338 -0.1542
vn 0.9875 -0.0338 -0.1542
vn 0.7317 -0.1454 -0.6659
vn 0.7323 0.1536 0.6634
vn 0.9875 0.0354 0.1535
vn -0.7323 0.1536 0.6634
vn -0.9875 0.0354 0.1535
vn -0.7319 0.1427 0.6663
vn -0.9875 0.0330 0.1543
vn -0.7317 0.1053 0.6734
vn -0.9875 0.0243 0.1559
vn -0.7305 0.1054 0.6747
vn -0.9874 0.0243 0.1565
vn -0.7286 0.1056 0.6767
vn -0.9872 0.0243 0.1574
vn -0.7254 0.0593 0.6857
vn -0.9870 0.0135 0.1601
vn -0.7246 -0.0002 0.6892
vn -0.9869 -0.0002 0.1611
vn -0.7229 -0.0002 0.6910
vn -0.9868 -0.0002 0.1618
vn -0.7217 -0.0001 0.6922
vn -0.9867 -0.0001 0.1624
vn -0.7210 -0.0001 0.6929
vn -0.9867 -0.0001 0.1627
vn -0.7205 -0.0000 -0.6935
vn -0.9866 -0.0000 -0.1629
vn -0.7208 -0.0001 -0.6932
vn -0.9867 -0.0001 -0.1628
vn -0.7215 -0.0001 -0.6924
vn -0.9867 -0.0001 -0.1625
vn -0.7226 -0.0002 -0.6913
vn -0.9868 -0.0002 -0.1620
vn -0.7242 -0.0002 -0.6896
vn -0.9869 -0.0002 -0.1612
vn -0.7251 -0.0569 -0.6863
vn -0.9870 -0.0135 -0.1603
vn -0.7283 -0.1062 -0.6770
vn -0.9872 -0.0249 -0.1574
vn -0.7301 -0.1058 -0.6751
vn -0.9873 -0.0247 -0.1566
vn -0.7312 -0.1056 -0.6740
vn -0.9874 -0.0245 -0.1562
vn -0.7311 -0.1429 -0.6672
vn -0.9874 -0.0331 -0.1546
vn 0.9866 -0.0000 -0.1629
vn 0.7205 -0.0000 -0.6935
vn 0.9867 -0.0001 -0.1628
vn 0.7208 -0.0001 -0.6932
vn 0.9867 -0.0001 -0.1625
vn 0.7215 -0.0001 -0.6924
vn 0.9868 -0.0002 -0.1620
vn 0.7226 -0.0002 -0.6913
vn 0.9869 -0.0002 -0.1612
vn 0.7242 -0.0002 -0.6896
vn 0.9870 -0.0135 -0.1603
vn 0.7251 -0.0569 -0.6863
vn 0.9872 -0.0249 -0.1574
vn 0.7283 -0.1062 -0.6770
vn 0.9873 -0.0247 -0.1566
vn 0.7301 -0.1058 -0.6751
vn 0.9874 -0.0245 -0.1562
vn 0.7312 -0.1056 -0.6740
vn 0.9874 -0.0331 -0.1546
vn 0.7311 -0.1429 -0.6671
vn 0.7207 -0.0000 0.6933
vn 0.9867 -0.0000 0.1629
vn 0.7210 -0.0001 0.6929
vn 0.9867 -0.0001 0.1627
vn 0.7217 -0.0001 0.6922
vn 0.9867 -0.0001 0.1624
vn 0.7229 -0.0002 0.6910
vn 0.9868 -0.0002 0.1618
vn 0.7246 -0.0002 0.6892
vn 0.9869 -0.0002 0.1611
vn 0.7254 0.0593 0.6857
vn 0.9870 0.0135 0.1601
vn 0.7286 0.1056 0.6767
vn 0.9872 0.0243 0.1574
vn 0.7305 0.1054 0.6747
vn 0.9874 0.0243 0.1565
vn 0.7317 0.1053 0.6734
vn 0.9875 0.0243 0.1559
vn 0.7319 0.1427 0.6663
vn 0.9875 0.0330 0.1543
vn -0.0000 -0.9853 0.1707
vn 0.0000 0.2656 0.9641
vn -0.7322 0.1809 0.6566
vn -0.9875 0.0418 0.1519
vn -0.9875 -0.0419 -0.1523
vn 0.7315 -0.1811 -0.6574
vn 0.0000 -0.2656 -0.9641
vn -0.7315 -0.1811 -0.6574
vn 0.9875 0.0418 0.1519
vn 0.9875 -0.0419 -0.1523
vn 0.7322 0.1809 0.6566
usemtl None
s off
f 22/1/1 24/2/1 23/3/1 10/4/1 12/5/1 11/6/1 4/7/1 6/8/1 5/9/1 16/10/1 18/11/1 17/12/1
f 20/13/2 113/14/2 142/15/2 13/16/2
f 26/17/3 29/18/3 80/19/3 82/20/3
f 52/21/3 4/22/3 11/23/3 56/24/3
f 14/25/4 143/26/4 25/27/4 1/28/4
f 8/29/5 83/30/5 112/31/5 19/32/5
f 115/33/6 16/34/6 5/35/6 53/36/6
f 29/18/3 32/37/3 77/38/3 80/19/3
f 32/37/3 35/39/3 74/40/3 77/38/3
f 35/39/3 38/41/3 71/42/3 74/40/3
f 38/41/3 41/43/3 68/44/3 71/42/3
f 41/43/3 44/45/3 65/46/3 68/44/3
f 44/45/3 47/47/3 62/48/3 65/46/3
f 47/47/3 50/49/3 59/50/3 62/48/3
f 50/49/3 52/21/3 56/24/3 59/50/3
f 58/51/7 55/52/7 86/53/7 89/54/7
f 85/55/2 22/1/2 17/12/2 116/56/2
f 113/14/2 109/57/2 140/58/2 142/15/2
f 109/57/2 106/59/2 137/60/2 140/58/2
f 106/59/2 103/61/2 134/62/2 137/60/2
f 103/61/2 100/63/2 131/64/2 134/62/2
f 100/63/2 97/65/2 128/66/2 131/64/2
f 97/65/2 94/67/2 125/68/2 128/66/2
f 94/67/2 91/69/2 122/70/2 125/68/2
f 91/69/2 88/71/2 119/72/2 122/70/2
f 55/52/7 10/73/7 23/74/7 86/53/7
f 88/71/2 85/55/2 116/56/2 119/72/2
f 83/30/8 79/75/8 110/76/8 112/31/8
f 79/75/9 76/77/9 107/78/9 110/76/9
f 76/77/9 73/79/9 104/80/9 107/78/9
f 73/79/9 70/81/9 101/82/9 104/80/9
f 70/81/10 67/83/10 98/84/10 101/82/10
f 67/83/7 64/85/7 95/86/7 98/84/7
f 64/85/7 61/87/7 92/88/7 95/86/7
f 61/87/7 58/51/7 89/54/7 92/88/7
f 20/13/2 13/16/2 151/89/2 155/90/2
f 143/26/11 139/91/11 28/92/11 25/27/11
f 139/91/12 136/93/12 31/94/12 28/92/12
f 136/93/12 133/95/12 34/96/12 31/94/12
f 133/95/12 130/97/12 37/98/12 34/96/12
f 130/97/13 127/99/13 40/100/13 37/98/13
f 127/99/6 124/101/6 43/102/6 40/100/6
f 124/101/6 121/103/6 46/104/6 43/102/6
f 121/103/6 118/105/6 49/106/6 46/104/6
f 118/105/6 115/33/6 53/36/6 49/106/6
f 53/36/14 5/35/14 6/107/14 54/108/14
f 54/109/15 6/110/15 4/22/15 52/21/15
f 83/30/16 8/29/16 9/111/16 84/112/16
f 84/112/17 9/111/17 7/113/17 82/20/17
f 113/14/18 20/13/18 21/114/18 114/115/18
f 114/115/19 21/114/19 19/32/19 112/31/19
f 143/26/20 14/25/20 15/116/20 144/117/20
f 144/117/21 15/116/21 13/16/21 142/15/21
f 1/28/22 25/27/22 27/118/22 3/119/22
f 3/120/23 27/121/23 26/17/23 2/122/23
f 25/27/24 28/92/24 30/123/24 27/124/24
f 27/125/25 30/126/25 29/18/25 26/17/25
f 28/92/26 31/94/26 33/127/26 30/128/26
f 30/129/27 33/130/27 32/37/27 29/18/27
f 31/94/28 34/96/28 36/131/28 33/132/28
f 33/133/29 36/134/29 35/39/29 32/37/29
f 34/96/30 37/98/30 39/135/30 36/136/30
f 36/137/31 39/138/31 38/41/31 35/39/31
f 37/98/32 40/100/32 42/139/32 39/140/32
f 39/141/33 42/142/33 41/43/33 38/41/33
f 40/100/34 43/102/34 45/143/34 42/139/34
f 42/142/35 45/144/35 44/45/35 41/43/35
f 43/102/36 46/104/36 48/145/36 45/143/36
f 45/144/37 48/146/37 47/47/37 44/45/37
f 46/104/38 49/106/38 51/147/38 48/145/38
f 48/146/39 51/148/39 50/49/39 47/47/39
f 49/106/40 53/36/40 54/108/40 51/147/40
f 51/148/41 54/109/41 52/21/41 50/49/41
f 10/73/42 55/52/42 57/149/42 12/5/42
f 12/5/43 57/149/43 56/24/43 11/23/43
f 55/52/44 58/51/44 60/150/44 57/149/44
f 57/149/45 60/150/45 59/50/45 56/24/45
f 58/51/46 61/87/46 63/151/46 60/150/46
f 60/150/47 63/151/47 62/48/47 59/50/47
f 61/87/48 64/85/48 66/152/48 63/151/48
f 63/151/49 66/152/49 65/46/49 62/48/49
f 64/85/50 67/83/50 69/153/50 66/152/50
f 66/152/51 69/153/51 68/44/51 65/46/51
f 67/83/52 70/81/52 72/154/52 69/153/52
f 69/153/53 72/154/53 71/42/53 68/44/53
f 70/81/54 73/79/54 75/155/54 72/154/54
f 72/154/55 75/155/55 74/40/55 71/42/55
f 73/79/56 76/77/56 78/156/56 75/155/56
f 75/155/57 78/156/57 77/38/57 74/40/57
f 76/77/58 79/75/58 81/157/58 78/156/58
f 78/156/59 81/157/59 80/19/59 77/38/59
f 79/75/60 83/30/60 84/112/60 81/157/60
f 81/157/61 84/112/61 82/20/61 80/19/61
f 22/1/62 85/55/62 87/158/62 24/2/62
f 24/2/63 87/158/63 86/53/63 23/74/63
f 85/55/64 88/71/64 90/159/64 87/158/64
f 87/158/65 90/159/65 89/54/65 86/53/65
f 88/71/66 91/69/66 93/160/66 90/159/66
f 90/159/67 93/160/67 92/88/67 89/54/67
f 91/69/68 94/67/68 96/161/68 93/160/68
f 93/160/69 96/161/69 95/86/69 92/88/69
f 94/67/70 97/65/70 99/162/70 96/161/70
f 96/161/71 99/162/71 98/84/71 95/86/71
f 97/65/72 100/63/72 102/163/72 99/162/72
f 99/162/73 102/163/73 101/82/73 98/84/73
f 100/63/74 103/61/74 105/164/74 102/163/74
f 102/163/75 105/164/75 104/80/75 101/82/75
f 103/61/76 106/59/76 108/165/76 105/164/76
f 105/164/77 108/165/77 107/78/77 104/80/77
f 106/59/78 109/57/78 111/166/78 108/165/78
f 108/165/79 111/166/79 110/76/79 107/78/79
f 109/57/80 113/14/80 114/115/80 111/166/80
f 111/166/81 114/115/81 112/31/81 110/76/81
f 16/34/82 115/33/82 117/167/82 18/11/82
f 18/11/83 117/167/83 116/56/83 17/12/83
f 115/33/84 118/105/84 120/168/84 117/167/84
f 117/167/85 120/168/85 119/72/85 116/56/85
f 118/105/86 121/103/86 123/169/86 120/168/86
f 120/168/87 123/169/87 122/70/87 119/72/87
f 121/103/88 124/101/88 126/170/88 123/169/88
f 123/169/89 126/170/89 125/68/89 122/70/89
f 124/101/90 127/99/90 129/171/90 126/170/90
f 126/170/91 129/171/91 128/66/91 125/68/91
f 127/99/92 130/97/92 132/172/92 129/171/92
f 129/171/93 132/172/93 131/64/93 128/66/93
f 130/97/94 133/95/94 135/173/94 132/172/94
f 132/172/95 135/173/95 134/62/95 131/64/95
f 133/95/96 136/93/96 138/174/96 135/173/96
f 135/173/97 138/174/97 137/60/97 134/62/97
f 136/93/98 139/91/98 141/175/98 138/174/98
f 138/174/99 141/175/99 140/58/99 137/60/99
f 139/91/100 143/26/100 144/117/100 141/175/100
f 141/175/101 144/117/101 142/15/101 140/58/101
f 2/122/3 26/17/3 82/20/3 7/113/3
f 148/176/102 150/177/102 149/178/102 154/179/102 156/180/102 155/90/102 151/89/102 153/181/102 152/182/102 145/183/102 147/184/102 146/185/102
f 2/122/3 7/113/3 148/186/3 146/187/3
f 14/25/103 1/28/103 145/188/103 152/189/103
f 1/28/104 3/119/104 147/190/104 145/188/104
f 3/120/105 2/122/105 146/187/105 147/191/105
f 7/113/106 9/111/106 150/177/106 148/186/106
f 19/32/107 21/114/107 156/180/107 154/192/107
f 8/29/108 19/32/108 154/192/108 149/193/108
f 9/111/109 8/29/109 149/193/109 150/177/109
f 13/16/110 15/116/110 153/181/110 151/89/110
f 21/114/111 20/13/111 155/90/111 156/180/111
f 15/116/112 14/25/112 152/189/112 153/181/112
