# Blender v2.91.0 OBJ File: ''
# www.blender.org
mtllib supressor.mtl
o Supressor_Cylinder.013
v 0.000000 2.843925 11.221653
v 0.048626 2.839135 11.221653
v 0.095384 2.824952 11.221653
v 0.138476 2.801919 11.221653
v 0.176246 2.770921 11.221653
v 0.207244 2.733150 11.221653
v 0.230277 2.690058 11.221653
v 0.244461 2.643301 11.221653
v 0.249250 2.594675 11.221653
v 0.244461 2.546049 11.221653
v 0.230277 2.499291 11.221653
v 0.207244 2.456199 11.221653
v 0.176246 2.418429 11.221653
v 0.138476 2.387431 11.221653
v 0.095384 2.364398 11.221653
v 0.048626 2.350214 11.221653
v -0.000000 2.345425 11.221653
v -0.048626 2.350214 11.221653
v -0.095384 2.364398 11.221653
v -0.138476 2.387431 11.221653
v -0.176246 2.418429 11.221653
v -0.207244 2.456199 11.221653
v -0.230277 2.499291 11.221653
v -0.244461 2.546049 11.221653
v -0.249250 2.594675 11.221653
v -0.244460 2.643301 11.221653
v -0.230277 2.690059 11.221653
v -0.207243 2.733151 11.221653
v -0.176246 2.770921 11.221653
v -0.138475 2.801919 11.221653
v -0.095383 2.824952 11.221653
v -0.048626 2.839135 11.221653
v 0.000000 3.309710 11.433786
v 0.000000 3.309711 16.469099
v 0.139496 3.295971 11.433786
v 0.139496 3.295971 16.469099
v 0.273632 3.255281 11.433786
v 0.273632 3.255282 16.469099
v 0.397252 3.189205 11.433786
v 0.397252 3.189205 16.469099
v 0.505606 3.100281 11.433786
v 0.505606 3.100281 16.469099
v 0.594530 2.991927 11.433786
v 0.594530 2.991928 16.469099
v 0.660606 2.868307 11.433786
v 0.660606 2.868307 16.469099
v 0.701296 2.734171 11.433786
v 0.701296 2.734172 16.469099
v 0.715035 2.594675 11.433786
v 0.715035 2.594675 16.469099
v 0.701296 2.455178 11.433786
v 0.701296 2.455179 16.469099
v 0.660606 2.321043 11.433786
v 0.660606 2.321043 16.469099
v 0.594530 2.197423 11.433786
v 0.594530 2.197423 16.469099
v 0.505606 2.089069 11.433786
v 0.505606 2.089069 16.469099
v 0.397252 2.000145 11.433786
v 0.397252 2.000145 16.469099
v 0.273632 1.934068 11.433786
v 0.273632 1.934069 16.469099
v 0.139496 1.893379 11.433786
v 0.139496 1.893379 16.469099
v -0.000000 1.879640 11.433786
v -0.000000 1.879640 16.469099
v -0.139497 1.893379 11.433786
v -0.139497 1.893379 16.469099
v -0.273632 1.934069 11.433786
v -0.273632 1.934069 16.469099
v -0.397253 2.000145 11.433786
v -0.397253 2.000145 16.469099
v -0.505607 2.089069 11.433786
v -0.505607 2.089069 16.469099
v -0.594530 2.197423 11.433786
v -0.594530 2.197423 16.469099
v -0.660607 2.321043 11.433786
v -0.660607 2.321044 16.469099
v -0.701296 2.455179 11.433786
v -0.701296 2.455179 16.469099
v -0.715035 2.594676 11.433786
v -0.715035 2.594676 16.469099
v -0.701296 2.734172 11.433786
v -0.701296 2.734172 16.469099
v -0.660606 2.868308 11.433786
v -0.660606 2.868308 16.469099
v -0.594530 2.991928 11.433786
v -0.594530 2.991928 16.469099
v -0.505606 3.100282 11.433786
v -0.505606 3.100282 16.469099
v -0.397252 3.189206 11.433786
v -0.397252 3.189206 16.469099
v -0.273631 3.255282 11.433786
v -0.273631 3.255282 16.469099
v -0.139495 3.295971 11.433786
v -0.139495 3.295971 16.469099
v 0.000000 3.309710 11.057335
v 0.139497 3.295971 11.057335
v 0.273632 3.255281 11.057335
v 0.397252 3.189205 11.057335
v 0.505606 3.100281 11.057335
v 0.594530 2.991927 11.057335
v 0.660607 2.868307 11.057335
v 0.701296 2.734171 11.057335
v 0.715035 2.594675 11.057335
v 0.701296 2.455178 11.057335
v 0.660607 2.321043 11.057335
v 0.594530 2.197423 11.057335
v 0.505606 2.089068 11.057335
v 0.397252 2.000145 11.057335
v 0.273632 1.934068 11.057335
v 0.139496 1.893379 11.057335
v -0.000000 1.879640 11.057335
v -0.139497 1.893379 11.057335
v -0.273632 1.934069 11.057335
v -0.397253 2.000145 11.057335
v -0.505607 2.089069 11.057335
v -0.594530 2.197423 11.057335
v -0.660607 2.321043 11.057335
v -0.701296 2.455179 11.057335
v -0.715035 2.594676 11.057335
v -0.701296 2.734172 11.057335
v -0.660606 2.868308 11.057335
v -0.594530 2.991928 11.057335
v -0.505606 3.100282 11.057335
v -0.397251 3.189205 11.057335
v -0.273631 3.255282 11.057335
v -0.139495 3.295971 11.057335
v 0.000000 2.843925 16.469099
v -0.048626 2.350215 16.469099
v -0.230277 2.499291 11.057335
v -0.244460 2.643301 11.057335
v 0.048626 2.839136 16.469099
v -0.095384 2.364398 16.469099
v 0.000000 2.843925 11.057335
v 0.095384 2.824952 11.057335
v 0.095384 2.824952 16.469099
v 0.048626 2.839135 11.057335
v -0.138476 2.387432 16.469099
v 0.138476 2.801918 11.057335
v 0.176246 2.418428 11.057335
v -0.048626 2.839135 11.057335
v 0.138476 2.801919 16.469099
v -0.176246 2.418429 16.469099
v 0.207244 2.456199 11.057335
v -0.207244 2.456199 11.057335
v 0.176246 2.770921 16.469099
v 0.230277 2.499291 11.057335
v -0.207244 2.456200 16.469099
v -0.176246 2.418429 11.057335
v 0.244461 2.546049 11.057335
v 0.207244 2.733151 16.469099
v -0.138475 2.801919 11.057335
v -0.138476 2.387431 11.057335
v -0.230277 2.499292 16.469099
v -0.095383 2.824952 11.057335
v -0.095384 2.364398 11.057335
v 0.230277 2.690059 16.469099
v 0.244461 2.643301 11.057335
v -0.207243 2.733151 11.057335
v -0.244461 2.546049 16.469099
v 0.249250 2.594675 11.057335
v -0.176246 2.770921 11.057335
v 0.244461 2.643301 16.469099
v 0.207244 2.733150 11.057335
v -0.048626 2.350214 11.057335
v -0.249250 2.594675 16.469099
v 0.230277 2.690058 11.057335
v 0.249250 2.594675 16.469099
v -0.000000 2.345425 11.057335
v -0.244460 2.643302 16.469099
v 0.048626 2.350214 11.057335
v 0.244461 2.546049 16.469099
v -0.230277 2.690059 11.057335
v 0.095384 2.364398 11.057335
v -0.244461 2.546049 11.057335
v -0.230277 2.690059 16.469099
v 0.176246 2.770921 11.057335
v 0.230277 2.499291 16.469099
v -0.249250 2.594675 11.057335
v 0.138476 2.387431 11.057335
v 0.207244 2.456199 16.469099
v -0.207243 2.733151 16.469099
v 0.176246 2.418429 16.469099
v -0.176246 2.770922 16.469099
v 0.138476 2.387432 16.469099
v -0.138475 2.801919 16.469099
v 0.095384 2.364398 16.469099
v -0.095383 2.824952 16.469099
v 0.048626 2.350215 16.469099
v -0.048626 2.839136 16.469099
v -0.000000 2.345425 16.469099
vt 1.000000 0.500000
vt 1.000000 1.000000
vt 0.968750 1.000000
vt 0.968750 0.500000
vt 0.937500 1.000000
vt 0.937500 0.500000
vt 0.906250 1.000000
vt 0.906250 0.500000
vt 0.875000 1.000000
vt 0.875000 0.500000
vt 0.843750 1.000000
vt 0.843750 0.500000
vt 0.812500 1.000000
vt 0.812500 0.500000
vt 0.781250 1.000000
vt 0.781250 0.500000
vt 0.750000 1.000000
vt 0.750000 0.500000
vt 0.718750 1.000000
vt 0.718750 0.500000
vt 0.687500 1.000000
vt 0.687500 0.500000
vt 0.656250 1.000000
vt 0.656250 0.500000
vt 0.625000 1.000000
vt 0.625000 0.500000
vt 0.593750 1.000000
vt 0.593750 0.500000
vt 0.562500 1.000000
vt 0.562500 0.500000
vt 0.531250 1.000000
vt 0.531250 0.500000
vt 0.500000 1.000000
vt 0.500000 0.500000
vt 0.468750 1.000000
vt 0.468750 0.500000
vt 0.437500 1.000000
vt 0.437500 0.500000
vt 0.406250 1.000000
vt 0.406250 0.500000
vt 0.375000 1.000000
vt 0.375000 0.500000
vt 0.343750 1.000000
vt 0.343750 0.500000
vt 0.312500 1.000000
vt 0.312500 0.500000
vt 0.281250 1.000000
vt 0.281250 0.500000
vt 0.250000 1.000000
vt 0.250000 0.500000
vt 0.218750 1.000000
vt 0.218750 0.500000
vt 0.187500 1.000000
vt 0.187500 0.500000
vt 0.156250 1.000000
vt 0.156250 0.500000
vt 0.125000 1.000000
vt 0.125000 0.500000
vt 0.093750 1.000000
vt 0.093750 0.500000
vt 0.062500 1.000000
vt 0.062500 0.500000
vt 0.031250 1.000000
vt 0.031250 0.500000
vt 0.000000 1.000000
vt 0.000000 0.500000
vt 0.781250 0.500000
vt 0.812500 0.500000
vt 0.500000 0.500000
vt 0.531250 0.500000
vt 0.218750 0.500000
vt 0.250000 0.500000
vt 0.906250 0.500000
vt 0.937500 0.500000
vt 0.625000 0.500000
vt 0.656250 0.500000
vt 0.343750 0.500000
vt 0.375000 0.500000
vt 0.062500 0.500000
vt 0.093750 0.500000
vt 0.750000 0.500000
vt 0.468750 0.500000
vt 0.187500 0.500000
vt 0.875000 0.500000
vt 0.593750 0.500000
vt 0.312500 0.500000
vt 0.031250 0.500000
vt 0.718750 0.500000
vt 0.437500 0.500000
vt 0.156250 0.500000
vt 0.843750 0.500000
vt 0.562500 0.500000
vt 0.281250 0.500000
vt 0.968750 0.500000
vt 1.000000 0.500000
vt 0.000000 0.500000
vt 0.687500 0.500000
vt 0.406250 0.500000
vt 0.125000 0.500000
vt 1.000000 0.980572
vt 1.000000 0.500000
vt 0.968750 0.500000
vt 0.968750 0.980572
vt 0.968750 0.980572
vt 0.937500 0.500000
vt 0.937500 0.980572
vt 0.906250 0.500000
vt 0.906250 0.980572
vt 0.875000 0.500000
vt 0.875000 0.980572
vt 0.843750 0.500000
vt 0.843750 0.980572
vt 0.812500 0.500000
vt 0.812500 0.980572
vt 0.781250 0.500000
vt 0.781250 0.980572
vt 0.750000 0.500000
vt 0.750000 0.980572
vt 0.718750 0.500000
vt 0.718750 0.980572
vt 0.687500 0.500000
vt 0.687500 0.980572
vt 0.656250 0.500000
vt 0.656250 0.980572
vt 0.625000 0.500000
vt 0.625000 0.980572
vt 0.593750 0.500000
vt 0.593750 0.980572
vt 0.562500 0.500000
vt 0.562500 0.980572
vt 0.531250 0.500000
vt 0.531250 0.980572
vt 0.500000 0.500000
vt 0.500000 0.980572
vt 0.468750 0.500000
vt 0.468750 0.980572
vt 0.437500 0.500000
vt 0.437500 0.980572
vt 0.406250 0.500000
vt 0.406250 0.980572
vt 0.375000 0.500000
vt 0.375000 0.980572
vt 0.343750 0.500000
vt 0.343750 0.980572
vt 0.343750 0.980572
vt 0.312500 0.500000
vt 0.312500 0.980572
vt 0.281250 0.500000
vt 0.281250 0.980572
vt 0.250000 0.500000
vt 0.250000 0.980572
vt 0.218750 0.500000
vt 0.218750 0.980572
vt 0.187500 0.500000
vt 0.187500 0.980572
vt 0.156250 0.500000
vt 0.156250 0.980572
vt 0.156250 0.980572
vt 0.125000 0.500000
vt 0.125000 0.980572
vt 0.093750 0.500000
vt 0.093750 0.980572
vt 0.062500 0.500000
vt 0.062500 0.980572
vt 0.031250 0.500000
vt 0.031250 0.980572
vt 0.000000 0.500000
vt 0.000000 0.980572
vt 0.781250 0.500000
vt 0.812500 0.500000
vt 0.531250 0.500000
vt 0.500000 0.500000
vt 0.218750 0.500000
vt 0.250000 0.500000
vt 0.906250 0.500000
vt 0.937500 0.500000
vt 0.625000 0.500000
vt 0.656250 0.500000
vt 0.343750 0.500000
vt 0.375000 0.500000
vt 0.062500 0.500000
vt 0.093750 0.500000
vt 0.750000 0.500000
vt 0.468750 0.500000
vt 0.187500 0.500000
vt 0.875000 0.500000
vt 0.593750 0.500000
vt 0.312500 0.500000
vt 0.031250 0.500000
vt 0.718750 0.500000
vt 0.437500 0.500000
vt 0.156250 0.500000
vt 0.843750 0.500000
vt 0.562500 0.500000
vt 0.281250 0.500000
vt 0.968750 0.500000
vt 1.000000 0.500000
vt 0.000000 0.500000
vt 0.687500 0.500000
vt 0.406250 0.500000
vt 0.125000 0.500000
vt 0.419706 0.080294
vt 0.449553 0.116663
vt 0.471731 0.158156
vt 0.327292 0.217985
vt 0.319561 0.203521
vt 0.309157 0.190843
vt 0.296479 0.180439
vt 0.282015 0.172708
vt 0.266321 0.167947
vt 0.250000 0.166340
vt 0.233679 0.167947
vt 0.217985 0.172708
vt 0.158156 0.028269
vt 0.203178 0.014612
vt 0.250000 0.010000
vt 0.296822 0.014612
vt 0.341844 0.028269
vt 0.383337 0.050447
vt 0.485388 0.203178
vt 0.490000 0.250000
vt 0.485388 0.296822
vt 0.471731 0.341844
vt 0.449553 0.383337
vt 0.419706 0.419706
vt 0.383337 0.449553
vt 0.341844 0.471731
vt 0.296822 0.485388
vt 0.250000 0.490000
vt 0.203179 0.485389
vt 0.158156 0.471731
vt 0.116663 0.449553
vt 0.080295 0.419706
vt 0.050447 0.383337
vt 0.028269 0.341844
vt 0.014612 0.296822
vt 0.010000 0.250000
vt 0.014611 0.203179
vt 0.028269 0.158156
vt 0.050447 0.116663
vt 0.080294 0.080294
vt 0.116663 0.050447
vt 0.203521 0.180439
vt 0.190843 0.190843
vt 0.180439 0.203521
vt 0.172708 0.217985
vt 0.167947 0.233679
vt 0.166340 0.250000
vt 0.167947 0.266321
vt 0.172708 0.282015
vt 0.180439 0.296479
vt 0.190843 0.309157
vt 0.203521 0.319561
vt 0.217985 0.327292
vt 0.233679 0.332053
vt 0.250000 0.333660
vt 0.266321 0.332053
vt 0.282015 0.327292
vt 0.296479 0.319561
vt 0.309157 0.309157
vt 0.319561 0.296479
vt 0.327292 0.282015
vt 0.332053 0.266321
vt 0.333660 0.250000
vt 0.332053 0.233679
vt 0.703179 0.485389
vt 0.750000 0.490000
vt 0.796822 0.485388
vt 0.841844 0.471731
vt 0.883337 0.449553
vt 0.919706 0.419706
vt 0.949553 0.383337
vt 0.971731 0.341844
vt 0.985388 0.296822
vt 0.990000 0.250000
vt 0.985388 0.203178
vt 0.971731 0.158156
vt 0.949553 0.116663
vt 0.919706 0.080294
vt 0.883337 0.050447
vt 0.841844 0.028269
vt 0.796822 0.014612
vt 0.766321 0.167947
vt 0.782015 0.172708
vt 0.796479 0.180439
vt 0.809157 0.190843
vt 0.819561 0.203521
vt 0.827292 0.217985
vt 0.832053 0.233679
vt 0.833660 0.250000
vt 0.832053 0.266321
vt 0.827292 0.282015
vt 0.819561 0.296479
vt 0.809157 0.309157
vt 0.796479 0.319561
vt 0.782016 0.327292
vt 0.766321 0.332053
vt 0.750000 0.333660
vt 0.733679 0.332053
vt 0.717985 0.327292
vt 0.703521 0.319561
vt 0.690843 0.309157
vt 0.680439 0.296479
vt 0.672708 0.282015
vt 0.667947 0.266321
vt 0.666340 0.250000
vt 0.667947 0.233679
vt 0.514611 0.203179
vt 0.510000 0.250000
vt 0.514612 0.296822
vt 0.528269 0.341844
vt 0.550447 0.383337
vt 0.580295 0.419706
vt 0.616663 0.449553
vt 0.658156 0.471731
vt 0.750000 0.010000
vt 0.703178 0.014612
vt 0.658156 0.028269
vt 0.616663 0.050447
vt 0.580294 0.080294
vt 0.550447 0.116663
vt 0.528269 0.158156
vt 0.672708 0.217985
vt 0.680439 0.203521
vt 0.690843 0.190843
vt 0.703521 0.180439
vt 0.717985 0.172708
vt 0.733679 0.167947
vt 0.750000 0.166340
vn 0.0980 0.9952 -0.0000
vn 0.2903 0.9569 -0.0000
vn 0.4714 0.8819 -0.0000
vn 0.6344 0.7730 -0.0000
vn 0.7730 0.6344 -0.0000
vn 0.8819 0.4714 -0.0000
vn 0.9569 0.2903 -0.0000
vn 0.9952 0.0980 -0.0000
vn 0.9952 -0.0980 0.0000
vn 0.9569 -0.2903 0.0000
vn 0.8819 -0.4714 0.0000
vn 0.7730 -0.6344 0.0000
vn 0.6344 -0.7730 0.0000
vn 0.4714 -0.8819 0.0000
vn 0.2903 -0.9569 0.0000
vn 0.0980 -0.9952 0.0000
vn -0.0980 -0.9952 0.0000
vn -0.2903 -0.9569 0.0000
vn -0.4714 -0.8819 0.0000
vn -0.6344 -0.7730 0.0000
vn -0.7730 -0.6344 0.0000
vn -0.8819 -0.4714 0.0000
vn -0.9569 -0.2903 0.0000
vn -0.9952 -0.0980 0.0000
vn -0.9952 0.0980 0.0000
vn -0.9569 0.2903 -0.0000
vn -0.8819 0.4714 -0.0000
vn -0.7730 0.6344 -0.0000
vn -0.6344 0.7730 -0.0000
vn -0.4714 0.8819 -0.0000
vn -0.2903 0.9569 -0.0000
vn -0.0980 0.9952 -0.0000
vn 0.0000 0.0000 1.0000
vn -0.0000 0.0000 -1.0000
usemtl None
s off
f 33/1/1 34/2/1 36/3/1 35/4/1
f 35/4/2 36/3/2 38/5/2 37/6/2
f 37/6/3 38/5/3 40/7/3 39/8/3
f 39/8/4 40/7/4 42/9/4 41/10/4
f 41/10/5 42/9/5 44/11/5 43/12/5
f 43/12/6 44/11/6 46/13/6 45/14/6
f 45/14/7 46/13/7 48/15/7 47/16/7
f 47/16/8 48/15/8 50/17/8 49/18/8
f 49/18/9 50/17/9 52/19/9 51/20/9
f 51/20/10 52/19/10 54/21/10 53/22/10
f 53/22/11 54/21/11 56/23/11 55/24/11
f 55/24/12 56/23/12 58/25/12 57/26/12
f 57/26/13 58/25/13 60/27/13 59/28/13
f 59/28/14 60/27/14 62/29/14 61/30/14
f 61/30/15 62/29/15 64/31/15 63/32/15
f 63/32/16 64/31/16 66/33/16 65/34/16
f 65/34/17 66/33/17 68/35/17 67/36/17
f 67/36/18 68/35/18 70/37/18 69/38/18
f 69/38/19 70/37/19 72/39/19 71/40/19
f 71/40/20 72/39/20 74/41/20 73/42/20
f 73/42/21 74/41/21 76/43/21 75/44/21
f 75/44/22 76/43/22 78/45/22 77/46/22
f 77/46/23 78/45/23 80/47/23 79/48/23
f 79/48/24 80/47/24 82/49/24 81/50/24
f 81/50/25 82/49/25 84/51/25 83/52/25
f 83/52/26 84/51/26 86/53/26 85/54/26
f 85/54/27 86/53/27 88/55/27 87/56/27
f 87/56/28 88/55/28 90/57/28 89/58/28
f 89/58/29 90/57/29 92/59/29 91/60/29
f 91/60/30 92/59/30 94/61/30 93/62/30
f 93/62/31 94/61/31 96/63/31 95/64/31
f 95/64/32 96/63/32 34/65/32 33/66/32
f 45/14/7 47/16/7 104/67/7 103/68/7
f 63/32/16 65/34/16 113/69/16 112/70/16
f 81/50/25 83/52/25 122/71/25 121/72/25
f 37/6/3 39/8/3 100/73/3 99/74/3
f 55/24/12 57/26/12 109/75/12 108/76/12
f 73/42/21 75/44/21 118/77/21 117/78/21
f 91/60/30 93/62/30 127/79/30 126/80/30
f 47/16/8 49/18/8 105/81/8 104/67/8
f 65/34/17 67/36/17 114/82/17 113/69/17
f 83/52/26 85/54/26 123/83/26 122/71/26
f 39/8/4 41/10/4 101/84/4 100/73/4
f 57/26/13 59/28/13 110/85/13 109/75/13
f 75/44/22 77/46/22 119/86/22 118/77/22
f 93/62/31 95/64/31 128/87/31 127/79/31
f 49/18/9 51/20/9 106/88/9 105/81/9
f 67/36/18 69/38/18 115/89/18 114/82/18
f 85/54/27 87/56/27 124/90/27 123/83/27
f 41/10/5 43/12/5 102/91/5 101/84/5
f 59/28/14 61/30/14 111/92/14 110/85/14
f 77/46/23 79/48/23 120/93/23 119/86/23
f 33/1/1 35/4/1 98/94/1 97/95/1
f 95/64/32 33/66/32 97/96/32 128/87/32
f 51/20/10 53/22/10 107/97/10 106/88/10
f 69/38/19 71/40/19 116/98/19 115/89/19
f 87/56/28 89/58/28 125/99/28 124/90/28
f 43/12/6 45/14/6 103/68/6 102/91/6
f 61/30/15 63/32/15 112/70/15 111/92/15
f 79/48/24 81/50/24 121/72/24 120/93/24
f 35/4/2 37/6/2 99/74/2 98/94/2
f 53/22/11 55/24/11 108/76/11 107/97/11
f 71/40/20 73/42/20 117/78/20 116/98/20
f 89/58/29 91/60/29 126/80/29 125/99/29
f 129/100/17 1/101/17 2/102/17 133/103/17
f 133/104/18 2/102/18 3/105/18 137/106/18
f 137/106/19 3/105/19 4/107/19 143/108/19
f 143/108/20 4/107/20 5/109/20 147/110/20
f 5/109/21 6/111/21 152/112/21 147/110/21
f 6/111/22 7/113/22 158/114/22 152/112/22
f 7/113/23 8/115/23 164/116/23 158/114/23
f 8/115/24 9/117/24 169/118/24 164/116/24
f 9/117/25 10/119/25 173/120/25 169/118/25
f 10/119/26 11/121/26 179/122/26 173/120/26
f 11/121/27 12/123/27 182/124/27 179/122/27
f 12/123/28 13/125/28 184/126/28 182/124/28
f 13/125/29 14/127/29 186/128/29 184/126/29
f 14/127/30 15/129/30 188/130/30 186/128/30
f 15/129/31 16/131/31 190/132/31 188/130/31
f 16/131/32 17/133/32 192/134/32 190/132/32
f 17/133/1 18/135/1 130/136/1 192/134/1
f 18/135/2 19/137/2 134/138/2 130/136/2
f 19/137/3 20/139/3 139/140/3 134/138/3
f 20/139/4 21/141/4 144/142/4 139/140/4
f 144/142/5 21/141/5 22/143/5 149/144/5
f 149/145/6 22/143/6 23/146/6 155/147/6
f 155/147/7 23/146/7 24/148/7 161/149/7
f 161/149/8 24/148/8 25/150/8 167/151/8
f 167/151/9 25/150/9 26/152/9 171/153/9
f 171/153/10 26/152/10 27/154/10 177/155/10
f 177/155/11 27/154/11 28/156/11 183/157/11
f 183/158/12 28/156/12 29/159/12 185/160/12
f 185/160/13 29/159/13 30/161/13 187/162/13
f 187/162/14 30/161/14 31/163/14 189/164/14
f 189/164/15 31/163/15 32/165/15 191/166/15
f 191/166/16 32/165/16 1/167/16 129/168/16
f 159/169/23 8/115/23 7/113/23 168/170/23
f 17/133/32 16/131/32 172/171/32 170/172/32
f 132/173/9 26/152/9 25/150/9 180/174/9
f 140/175/19 4/107/19 3/105/19 136/176/19
f 141/177/28 13/125/28 12/123/28 145/178/28
f 146/179/5 22/143/5 21/141/5 150/180/5
f 156/181/14 31/163/14 30/161/14 153/182/14
f 162/183/24 9/117/24 8/115/24 159/169/24
f 18/135/1 17/133/1 170/172/1 166/184/1
f 174/185/10 27/154/10 26/152/10 132/173/10
f 178/186/20 5/109/20 4/107/20 140/175/20
f 14/127/29 13/125/29 141/177/29 181/187/29
f 131/188/6 23/146/6 22/143/6 146/179/6
f 142/189/15 32/165/15 31/163/15 156/181/15
f 151/190/25 10/119/25 9/117/25 162/183/25
f 19/137/2 18/135/2 166/184/2 157/191/2
f 160/192/11 28/156/11 27/154/11 174/185/11
f 165/193/21 6/111/21 5/109/21 178/186/21
f 15/129/30 14/127/30 181/187/30 175/194/30
f 176/195/7 24/148/7 23/146/7 131/188/7
f 138/196/17 2/102/17 1/101/17 135/197/17
f 135/198/16 1/167/16 32/165/16 142/189/16
f 148/199/26 11/121/26 10/119/26 151/190/26
f 20/139/3 19/137/3 157/191/3 154/200/3
f 163/201/12 29/159/12 28/156/12 160/192/12
f 168/170/22 7/113/22 6/111/22 165/193/22
f 16/131/31 15/129/31 175/194/31 172/171/31
f 180/174/8 25/150/8 24/148/8 176/195/8
f 136/176/18 3/105/18 2/102/18 138/196/18
f 145/178/27 12/123/27 11/121/27 148/199/27
f 21/141/4 20/139/4 154/200/4 150/180/4
f 153/182/13 30/161/13 29/159/13 163/201/13
f 58/202/33 56/203/33 54/204/33 179/205/33 182/206/33 184/207/33 186/208/33 188/209/33 190/210/33 192/211/33 130/212/33 134/213/33 70/214/33 68/215/33 66/216/33 64/217/33 62/218/33 60/219/33
f 54/204/33 52/220/33 50/221/33 48/222/33 46/223/33 44/224/33 42/225/33 40/226/33 38/227/33 36/228/33 34/229/33 96/230/33 94/231/33 92/232/33 90/233/33 88/234/33 86/235/33 84/236/33 82/237/33 80/238/33 78/239/33 76/240/33 74/241/33 72/242/33 70/214/33 134/213/33 139/243/33 144/244/33 149/245/33 155/246/33 161/247/33 167/248/33 171/249/33 177/250/33 183/251/33 185/252/33 187/253/33 189/254/33 191/255/33 129/256/33 133/257/33 137/258/33 143/259/33 147/260/33 152/261/33 158/262/33 164/263/33 169/264/33 173/265/33 179/205/33
f 128/266/34 97/267/34 98/268/34 99/269/34 100/270/34 101/271/34 102/272/34 103/273/34 104/274/34 105/275/34 106/276/34 107/277/34 108/278/34 109/279/34 110/280/34 111/281/34 112/282/34 172/283/34 175/284/34 181/285/34 141/286/34 145/287/34 148/288/34 151/289/34 162/290/34 159/291/34 168/292/34 165/293/34 178/294/34 140/295/34 136/296/34 138/297/34 135/298/34 142/299/34 156/300/34 153/301/34 163/302/34 160/303/34 174/304/34 132/305/34 180/306/34 176/307/34 120/308/34 121/309/34 122/310/34 123/311/34 124/312/34 125/313/34 126/314/34 127/315/34
f 112/282/34 113/316/34 114/317/34 115/318/34 116/319/34 117/320/34 118/321/34 119/322/34 120/308/34 176/307/34 131/323/34 146/324/34 150/325/34 154/326/34 157/327/34 166/328/34 170/329/34 172/283/34
