# Blender v2.83.4 OBJ File: ''
# www.blender.org
mtllib Crate.mtl
o Cube_Cube.001
v 0.674761 0.044103 0.717185
v 0.674761 -0.218492 0.717185
v 0.674761 0.044103 -0.605881
v 0.674761 -0.218492 -0.605881
v -0.672197 0.044103 0.717185
v -0.672197 -0.218492 0.717185
v -0.672197 0.044103 -0.605881
v -0.672197 -0.218492 -0.605881
vt 0.375000 0.000000
vt 0.625000 0.000000
vt 0.625000 0.250000
vt 0.375000 0.250000
vt 0.625000 0.500000
vt 0.375000 0.500000
vt 0.625000 0.750000
vt 0.375000 0.750000
vt 0.625000 1.000000
vt 0.375000 1.000000
vt 0.125000 0.500000
vt 0.125000 0.750000
vt 0.875000 0.500000
vt 0.875000 0.750000
vn 1.0000 0.0000 0.0000
vn 0.0000 0.0000 -1.0000
vn -1.0000 0.0000 0.0000
vn 0.0000 0.0000 1.0000
vn 0.0000 1.0000 0.0000
vn 0.0000 -1.0000 0.0000
usemtl Material.004
s off
f 1/1/1 2/2/1 4/3/1 3/4/1
f 3/4/2 4/3/2 8/5/2 7/6/2
f 7/6/3 8/5/3 6/7/3 5/8/3
f 5/8/4 6/7/4 2/9/4 1/10/4
f 3/11/5 7/6/5 5/8/5 1/12/5
f 8/5/6 4/13/6 2/14/6 6/7/6
o Cube.001_Cube.002
v -0.692375 1.023733 0.717185
v -0.692375 -0.227369 0.717185
v -0.692375 1.023733 -0.605881
v -0.692375 -0.227369 -0.605881
v -0.657559 1.023733 0.717185
v -0.657559 -0.227369 0.717185
v -0.657559 1.023733 -0.605881
v -0.657559 -0.227369 -0.605881
vt 0.375000 0.000000
vt 0.375000 0.250000
vt 0.625000 0.250000
vt 0.625000 0.000000
vt 0.375000 0.500000
vt 0.625000 0.500000
vt 0.375000 0.750000
vt 0.625000 0.750000
vt 0.375000 1.000000
vt 0.625000 1.000000
vt 0.125000 0.500000
vt 0.125000 0.750000
vt 0.875000 0.750000
vt 0.875000 0.500000
vn -1.0000 0.0000 0.0000
vn 0.0000 0.0000 -1.0000
vn 1.0000 0.0000 0.0000
vn 0.0000 0.0000 1.0000
vn 0.0000 1.0000 0.0000
vn 0.0000 -1.0000 0.0000
usemtl Material.005
s off
f 9/15/7 11/16/7 12/17/7 10/18/7
f 11/16/8 15/19/8 16/20/8 12/17/8
f 15/19/9 13/21/9 14/22/9 16/20/9
f 13/21/10 9/23/10 10/24/10 14/22/10
f 11/25/11 9/26/11 13/21/11 15/19/11
f 16/20/12 14/22/12 10/27/12 12/28/12
o Cube.002_Cube.003
v 0.670197 1.023733 0.717185
v 0.670197 -0.227369 0.717185
v 0.670197 1.023733 -0.605881
v 0.670197 -0.227369 -0.605881
v 0.694257 1.023733 0.717185
v 0.694257 -0.227369 0.717185
v 0.694257 1.023733 -0.605881
v 0.694257 -0.227369 -0.605881
vt 0.375000 0.000000
vt 0.375000 0.250000
vt 0.625000 0.250000
vt 0.625000 0.000000
vt 0.375000 0.500000
vt 0.625000 0.500000
vt 0.375000 0.750000
vt 0.625000 0.750000
vt 0.375000 1.000000
vt 0.625000 1.000000
vt 0.125000 0.500000
vt 0.125000 0.750000
vt 0.875000 0.750000
vt 0.875000 0.500000
vn -1.0000 0.0000 0.0000
vn 0.0000 0.0000 -1.0000
vn 1.0000 0.0000 0.0000
vn 0.0000 0.0000 1.0000
vn 0.0000 1.0000 0.0000
vn 0.0000 -1.0000 0.0000
usemtl Material.006
s off
f 17/29/13 19/30/13 20/31/13 18/32/13
f 19/30/14 23/33/14 24/34/14 20/31/14
f 23/33/15 21/35/15 22/36/15 24/34/15
f 21/35/16 17/37/16 18/38/16 22/36/16
f 19/39/17 17/40/17 21/35/17 23/33/17
f 24/34/18 22/36/18 18/41/18 20/42/18
o Cube.003_Cube.004
v 0.696588 1.024433 -0.595110
v 0.696588 -0.218492 -0.595110
v 0.696588 1.024433 -0.657991
v 0.696588 -0.218492 -0.657991
v -0.692928 1.024433 -0.595110
v -0.692928 -0.218492 -0.595110
v -0.692928 1.024433 -0.657991
v -0.692928 -0.218492 -0.657991
v -0.692928 0.044103 -0.595110
v -0.692928 -0.218492 -0.595110
v -0.692928 0.044103 -0.657991
v -0.692928 -0.218492 -0.657991
vt 0.375000 0.000000
vt 0.625000 0.000000
vt 0.625000 0.250000
vt 0.375000 0.250000
vt 0.625000 0.500000
vt 0.375000 0.500000
vt 0.625000 0.750000
vt nan nan
vt nan nan
vt 0.375000 0.750000
vt 0.625000 1.000000
vt 0.375000 1.000000
vt 0.125000 0.500000
vt 0.125000 0.750000
vt 0.875000 0.500000
vt 0.875000 0.750000
vt nan nan
vt nan nan
vt nan nan
vt nan nan
vt nan nan
vt nan nan
vt nan nan
vt nan nan
vt nan nan
vt nan nan
vn 1.0000 0.0000 0.0000
vn 0.0000 0.0000 -1.0000
vn 0.0000 0.0000 1.0000
vn 0.0000 1.0000 0.0000
vn 0.0000 -1.0000 0.0000
vn -1.0000 0.0000 0.0000
usemtl Material.007
s off
f 25/43/19 26/44/19 28/45/19 27/46/19
f 27/46/20 28/45/20 32/47/20 31/48/20
f 32/47/21 30/49/21 34/50/21 36/51/21
f 29/52/21 30/49/21 26/53/21 25/54/21
f 27/55/22 31/48/22 29/52/22 25/56/22
f 32/47/23 28/57/23 26/58/23 30/49/23
f 35/59/24 36/60/24 34/61/24 33/62/24
f 31/48/24 32/47/24 36/63/24 35/64/24
f 30/49/19 29/52/19 33/65/19 34/66/19
f 29/52/24 31/48/24 35/67/24 33/68/24
o Cube.004_Cube.005
v 0.696588 1.024433 0.742288
v 0.696588 -0.218492 0.742288
v 0.696588 1.024433 0.679407
v 0.696588 -0.218492 0.679407
v -0.692928 1.024433 0.742288
v -0.692928 -0.218492 0.742288
v -0.692928 1.024433 0.679407
v -0.692928 -0.218492 0.679407
v -0.692928 0.044103 0.742288
v -0.692928 -0.218492 0.742288
v -0.692928 0.044103 0.679407
v -0.692928 -0.218492 0.679407
vt 0.375000 0.000000
vt 0.625000 0.000000
vt 0.625000 0.250000
vt 0.375000 0.250000
vt 0.625000 0.500000
vt 0.375000 0.500000
vt 0.625000 0.750000
vt nan nan
vt nan nan
vt 0.375000 0.750000
vt 0.625000 1.000000
vt 0.375000 1.000000
vt 0.125000 0.500000
vt 0.125000 0.750000
vt 0.875000 0.500000
vt 0.875000 0.750000
vt nan nan
vt nan nan
vt nan nan
vt nan nan
vt nan nan
vt nan nan
vt nan nan
vt nan nan
vt nan nan
vt nan nan
vn 1.0000 0.0000 0.0000
vn 0.0000 0.0000 -1.0000
vn 0.0000 0.0000 1.0000
vn 0.0000 1.0000 0.0000
vn 0.0000 -1.0000 0.0000
vn -1.0000 0.0000 0.0000
usemtl Material.008
s off
f 37/69/25 38/70/25 40/71/25 39/72/25
f 39/72/26 40/71/26 44/73/26 43/74/26
f 44/73/27 42/75/27 46/76/27 48/77/27
f 41/78/27 42/75/27 38/79/27 37/80/27
f 39/81/28 43/74/28 41/78/28 37/82/28
f 44/73/29 40/83/29 38/84/29 42/75/29
f 47/85/30 48/86/30 46/87/30 45/88/30
f 43/74/27 44/73/27 48/89/27 47/90/27
f 42/75/25 41/78/25 45/91/25 46/92/25
f 41/78/30 43/74/30 47/93/30 45/94/30
o Cube.005_Cube.006
v 0.709620 1.044376 0.750807
v 0.709620 0.936668 0.750807
v 0.709620 1.044376 -0.671545
v 0.709620 0.936668 -0.671545
v -0.707056 1.044376 0.750807
v -0.707056 0.936668 0.750807
v -0.707056 1.044376 -0.671545
v -0.707056 0.936668 -0.671545
vt 0.375000 0.000000
vt 0.625000 0.000000
vt 0.625000 0.250000
vt 0.375000 0.250000
vt 0.625000 0.500000
vt 0.375000 0.500000
vt 0.625000 0.750000
vt 0.375000 0.750000
vt 0.625000 1.000000
vt 0.375000 1.000000
vt 0.125000 0.500000
vt 0.125000 0.750000
vt 0.875000 0.500000
vt 0.875000 0.750000
vn 1.0000 0.0000 0.0000
vn 0.0000 0.0000 -1.0000
vn -1.0000 0.0000 0.0000
vn 0.0000 0.0000 1.0000
vn 0.0000 1.0000 0.0000
vn 0.0000 -1.0000 0.0000
usemtl Material.009
s off
f 49/95/31 50/96/31 52/97/31 51/98/31
f 51/98/32 52/97/32 56/99/32 55/100/32
f 55/100/33 56/99/33 54/101/33 53/102/33
f 53/102/34 54/101/34 50/103/34 49/104/34
f 51/105/35 55/100/35 53/102/35 49/106/35
f 56/99/36 52/107/36 50/108/36 54/101/36
o Cube.006_Cube.010
v -0.284785 1.065081 0.750807
v -0.284785 1.037313 0.750807
v -0.284785 1.065081 -0.671545
v -0.284785 1.037313 -0.671545
v -0.256026 1.065081 0.750807
v -0.256026 1.037313 0.750807
v -0.256026 1.065081 -0.671545
v -0.256026 1.037313 -0.671545
vt 0.375000 0.000000
vt 0.375000 0.250000
vt 0.625000 0.250000
vt 0.625000 0.000000
vt 0.375000 0.500000
vt 0.625000 0.500000
vt 0.375000 0.750000
vt 0.625000 0.750000
vt 0.375000 1.000000
vt 0.625000 1.000000
vt 0.125000 0.500000
vt 0.125000 0.750000
vt 0.875000 0.750000
vt 0.875000 0.500000
vn -1.0000 0.0000 0.0000
vn 0.0000 0.0000 -1.0000
vn 1.0000 0.0000 0.0000
vn 0.0000 0.0000 1.0000
vn 0.0000 1.0000 0.0000
vn 0.0000 -1.0000 0.0000
usemtl Material.011
s off
f 57/109/37 59/110/37 60/111/37 58/112/37
f 59/110/38 63/113/38 64/114/38 60/111/38
f 63/113/39 61/115/39 62/116/39 64/114/39
f 61/115/40 57/117/40 58/118/40 62/116/40
f 59/119/41 57/120/41 61/115/41 63/113/41
f 64/114/42 62/116/42 58/121/42 60/122/42
o Cube.007_Cube.011
v -0.284785 1.064282 -0.671198
v -0.284785 -0.228817 -0.671198
v -0.284785 1.064282 -0.691325
v -0.284785 -0.228817 -0.691325
v -0.256026 1.064282 -0.671198
v -0.256026 -0.228817 -0.671198
v -0.256026 1.064282 -0.691325
v -0.256026 -0.228817 -0.691325
vt 0.375000 0.000000
vt 0.375000 0.250000
vt 0.625000 0.250000
vt 0.625000 0.000000
vt 0.375000 0.500000
vt 0.625000 0.500000
vt 0.375000 0.750000
vt 0.625000 0.750000
vt 0.375000 1.000000
vt 0.625000 1.000000
vt 0.125000 0.500000
vt 0.125000 0.750000
vt 0.875000 0.750000
vt 0.875000 0.500000
vn -1.0000 0.0000 0.0000
vn 0.0000 0.0000 -1.0000
vn 1.0000 0.0000 0.0000
vn 0.0000 0.0000 1.0000
vn 0.0000 1.0000 0.0000
vn 0.0000 -1.0000 0.0000
usemtl Material.011
s off
f 65/123/43 67/124/43 68/125/43 66/126/43
f 67/124/44 71/127/44 72/128/44 68/125/44
f 71/127/45 69/129/45 70/130/45 72/128/45
f 69/129/46 65/131/46 66/132/46 70/130/46
f 67/133/47 65/134/47 69/129/47 71/127/47
f 72/128/48 70/130/48 66/135/48 68/136/48
o Cube.008_Cube.012
v -0.284785 1.064282 0.770559
v -0.284785 -0.228817 0.770559
v -0.284785 1.064282 0.750431
v -0.284785 -0.228817 0.750431
v -0.256026 1.064282 0.770559
v -0.256026 -0.228817 0.770559
v -0.256026 1.064282 0.750431
v -0.256026 -0.228817 0.750431
vt 0.375000 0.000000
vt 0.375000 0.250000
vt 0.625000 0.250000
vt 0.625000 0.000000
vt 0.375000 0.500000
vt 0.625000 0.500000
vt 0.375000 0.750000
vt 0.625000 0.750000
vt 0.375000 1.000000
vt 0.625000 1.000000
vt 0.125000 0.500000
vt 0.125000 0.750000
vt 0.875000 0.750000
vt 0.875000 0.500000
vn -1.0000 0.0000 0.0000
vn 0.0000 0.0000 -1.0000
vn 1.0000 0.0000 0.0000
vn 0.0000 0.0000 1.0000
vn 0.0000 1.0000 0.0000
vn 0.0000 -1.0000 0.0000
usemtl Material.011
s off
f 73/137/49 75/138/49 76/139/49 74/140/49
f 75/138/50 79/141/50 80/142/50 76/139/50
f 79/141/51 77/143/51 78/144/51 80/142/51
f 77/143/52 73/145/52 74/146/52 78/144/52
f 75/147/53 73/148/53 77/143/53 79/141/53
f 80/142/54 78/144/54 74/149/54 76/150/54
o Cube.009_Cube.013
v 0.271918 1.065081 0.750807
v 0.271918 1.037313 0.750807
v 0.271918 1.065081 -0.671545
v 0.271918 1.037313 -0.671545
v 0.300677 1.065081 0.750807
v 0.300677 1.037313 0.750807
v 0.300677 1.065081 -0.671545
v 0.300677 1.037313 -0.671545
vt 0.375000 0.000000
vt 0.375000 0.250000
vt 0.625000 0.250000
vt 0.625000 0.000000
vt 0.375000 0.500000
vt 0.625000 0.500000
vt 0.375000 0.750000
vt 0.625000 0.750000
vt 0.375000 1.000000
vt 0.625000 1.000000
vt 0.125000 0.500000
vt 0.125000 0.750000
vt 0.875000 0.750000
vt 0.875000 0.500000
vn -1.0000 0.0000 0.0000
vn 0.0000 0.0000 -1.0000
vn 1.0000 0.0000 0.0000
vn 0.0000 0.0000 1.0000
vn 0.0000 1.0000 0.0000
vn 0.0000 -1.0000 0.0000
usemtl Material.011
s off
f 81/151/55 83/152/55 84/153/55 82/154/55
f 83/152/56 87/155/56 88/156/56 84/153/56
f 87/155/57 85/157/57 86/158/57 88/156/57
f 85/157/58 81/159/58 82/160/58 86/158/58
f 83/161/59 81/162/59 85/157/59 87/155/59
f 88/156/60 86/158/60 82/163/60 84/164/60
o Cube.010_Cube.014
v 0.271918 1.064282 -0.671198
v 0.271918 -0.228817 -0.671198
v 0.271918 1.064282 -0.691325
v 0.271918 -0.228817 -0.691325
v 0.300677 1.064282 -0.671198
v 0.300677 -0.228817 -0.671198
v 0.300677 1.064282 -0.691325
v 0.300677 -0.228817 -0.691325
vt 0.375000 0.000000
vt 0.375000 0.250000
vt 0.625000 0.250000
vt 0.625000 0.000000
vt 0.375000 0.500000
vt 0.625000 0.500000
vt 0.375000 0.750000
vt 0.625000 0.750000
vt 0.375000 1.000000
vt 0.625000 1.000000
vt 0.125000 0.500000
vt 0.125000 0.750000
vt 0.875000 0.750000
vt 0.875000 0.500000
vn -1.0000 0.0000 0.0000
vn 0.0000 0.0000 -1.0000
vn 1.0000 0.0000 0.0000
vn 0.0000 0.0000 1.0000
vn 0.0000 1.0000 0.0000
vn 0.0000 -1.0000 0.0000
usemtl Material.011
s off
f 89/165/61 91/166/61 92/167/61 90/168/61
f 91/166/62 95/169/62 96/170/62 92/167/62
f 95/169/63 93/171/63 94/172/63 96/170/63
f 93/171/64 89/173/64 90/174/64 94/172/64
f 91/175/65 89/176/65 93/171/65 95/169/65
f 96/170/66 94/172/66 90/177/66 92/178/66
o Cube.011_Cube.015
v 0.271918 1.064282 0.770559
v 0.271918 -0.228817 0.770559
v 0.271918 1.064282 0.750431
v 0.271918 -0.228817 0.750431
v 0.300677 1.064282 0.770559
v 0.300677 -0.228817 0.770559
v 0.300677 1.064282 0.750431
v 0.300677 -0.228817 0.750431
vt 0.375000 0.000000
vt 0.375000 0.250000
vt 0.625000 0.250000
vt 0.625000 0.000000
vt 0.375000 0.500000
vt 0.625000 0.500000
vt 0.375000 0.750000
vt 0.625000 0.750000
vt 0.375000 1.000000
vt 0.625000 1.000000
vt 0.125000 0.500000
vt 0.125000 0.750000
vt 0.875000 0.750000
vt 0.875000 0.500000
vn -1.0000 0.0000 0.0000
vn 0.0000 0.0000 -1.0000
vn 1.0000 0.0000 0.0000
vn 0.0000 0.0000 1.0000
vn 0.0000 1.0000 0.0000
vn 0.0000 -1.0000 0.0000
usemtl Material.011
s off
f 97/179/67 99/180/67 100/181/67 98/182/67
f 99/180/68 103/183/68 104/184/68 100/181/68
f 103/183/69 101/185/69 102/186/69 104/184/69
f 101/185/70 97/187/70 98/188/70 102/186/70
f 99/189/71 97/190/71 101/185/71 103/183/71
f 104/184/72 102/186/72 98/191/72 100/192/72
o Cube.012_Cube.016
v -0.715099 1.065081 -0.238721
v -0.715099 1.037313 -0.238721
v 0.707252 1.065081 -0.238721
v 0.707252 1.037313 -0.238721
v -0.715099 1.065081 -0.209962
v -0.715099 1.037313 -0.209962
v 0.707252 1.065081 -0.209962
v 0.707252 1.037313 -0.209962
vt 0.375000 0.000000
vt 0.375000 0.250000
vt 0.625000 0.250000
vt 0.625000 0.000000
vt 0.375000 0.500000
vt 0.625000 0.500000
vt 0.375000 0.750000
vt 0.625000 0.750000
vt 0.375000 1.000000
vt 0.625000 1.000000
vt 0.125000 0.500000
vt 0.125000 0.750000
vt 0.875000 0.750000
vt 0.875000 0.500000
vn -0.0000 0.0000 -1.0000
vn 1.0000 0.0000 0.0000
vn 0.0000 0.0000 1.0000
vn -1.0000 0.0000 0.0000
vn 0.0000 1.0000 0.0000
vn 0.0000 -1.0000 0.0000
usemtl Material.011
s off
f 105/193/73 107/194/73 108/195/73 106/196/73
f 107/194/74 111/197/74 112/198/74 108/195/74
f 111/197/75 109/199/75 110/200/75 112/198/75
f 109/199/76 105/201/76 106/202/76 110/200/76
f 107/203/77 105/204/77 109/199/77 111/197/77
f 112/198/78 110/200/78 106/205/78 108/206/78
o Cube.013_Cube.017
v 0.706906 1.064282 -0.238721
v 0.706906 -0.228817 -0.238721
v 0.727033 1.064282 -0.238721
v 0.727033 -0.228817 -0.238721
v 0.706906 1.064282 -0.209962
v 0.706906 -0.228817 -0.209962
v 0.727033 1.064282 -0.209962
v 0.727033 -0.228817 -0.209962
vt 0.375000 0.000000
vt 0.375000 0.250000
vt 0.625000 0.250000
vt 0.625000 0.000000
vt 0.375000 0.500000
vt 0.625000 0.500000
vt 0.375000 0.750000
vt 0.625000 0.750000
vt 0.375000 1.000000
vt 0.625000 1.000000
vt 0.125000 0.500000
vt 0.125000 0.750000
vt 0.875000 0.750000
vt 0.875000 0.500000
vn 0.0000 0.0000 -1.0000
vn 1.0000 0.0000 0.0000
vn 0.0000 0.0000 1.0000
vn -1.0000 0.0000 0.0000
vn 0.0000 1.0000 0.0000
vn 0.0000 -1.0000 0.0000
usemtl Material.011
s off
f 113/207/79 115/208/79 116/209/79 114/210/79
f 115/208/80 119/211/80 120/212/80 116/209/80
f 119/211/81 117/213/81 118/214/81 120/212/81
f 117/213/82 113/215/82 114/216/82 118/214/82
f 115/217/83 113/218/83 117/213/83 119/211/83
f 120/212/84 118/214/84 114/219/84 116/220/84
o Cube.014_Cube.018
v -0.734851 1.064282 -0.238721
v -0.734851 -0.228817 -0.238721
v -0.714724 1.064282 -0.238721
v -0.714724 -0.228817 -0.238721
v -0.734851 1.064282 -0.209962
v -0.734851 -0.228817 -0.209962
v -0.714724 1.064282 -0.209962
v -0.714724 -0.228817 -0.209962
vt 0.375000 0.000000
vt 0.375000 0.250000
vt 0.625000 0.250000
vt 0.625000 0.000000
vt 0.375000 0.500000
vt 0.625000 0.500000
vt 0.375000 0.750000
vt 0.625000 0.750000
vt 0.375000 1.000000
vt 0.625000 1.000000
vt 0.125000 0.500000
vt 0.125000 0.750000
vt 0.875000 0.750000
vt 0.875000 0.500000
vn 0.0000 0.0000 -1.0000
vn 1.0000 0.0000 0.0000
vn 0.0000 0.0000 1.0000
vn -1.0000 0.0000 0.0000
vn 0.0000 1.0000 0.0000
vn 0.0000 -1.0000 0.0000
usemtl Material.011
s off
f 121/221/85 123/222/85 124/223/85 122/224/85
f 123/222/86 127/225/86 128/226/86 124/223/86
f 127/225/87 125/227/87 126/228/87 128/226/87
f 125/227/88 121/229/88 122/230/88 126/228/88
f 123/231/89 121/232/89 125/227/89 127/225/89
f 128/226/90 126/228/90 122/233/90 124/234/90
o Cube.015_Cube.019
v -0.715099 1.065081 0.284764
v -0.715099 1.037313 0.284764
v 0.707252 1.065081 0.284764
v 0.707252 1.037313 0.284764
v -0.715099 1.065081 0.313522
v -0.715099 1.037313 0.313522
v 0.707252 1.065081 0.313522
v 0.707252 1.037313 0.313522
vt 0.375000 0.000000
vt 0.375000 0.250000
vt 0.625000 0.250000
vt 0.625000 0.000000
vt 0.375000 0.500000
vt 0.625000 0.500000
vt 0.375000 0.750000
vt 0.625000 0.750000
vt 0.375000 1.000000
vt 0.625000 1.000000
vt 0.125000 0.500000
vt 0.125000 0.750000
vt 0.875000 0.750000
vt 0.875000 0.500000
vn -0.0000 0.0000 -1.0000
vn 1.0000 0.0000 0.0000
vn 0.0000 0.0000 1.0000
vn -1.0000 0.0000 0.0000
vn 0.0000 1.0000 0.0000
vn 0.0000 -1.0000 0.0000
usemtl Material.011
s off
f 129/235/91 131/236/91 132/237/91 130/238/91
f 131/236/92 135/239/92 136/240/92 132/237/92
f 135/239/93 133/241/93 134/242/93 136/240/93
f 133/241/94 129/243/94 130/244/94 134/242/94
f 131/245/95 129/246/95 133/241/95 135/239/95
f 136/240/96 134/242/96 130/247/96 132/248/96
o Cube.016_Cube.020
v 0.706906 1.064282 0.284764
v 0.706906 -0.228817 0.284764
v 0.727033 1.064282 0.284764
v 0.727033 -0.228817 0.284764
v 0.706906 1.064282 0.313522
v 0.706906 -0.228817 0.313522
v 0.727033 1.064282 0.313522
v 0.727033 -0.228817 0.313522
vt 0.375000 0.000000
vt 0.375000 0.250000
vt 0.625000 0.250000
vt 0.625000 0.000000
vt 0.375000 0.500000
vt 0.625000 0.500000
vt 0.375000 0.750000
vt 0.625000 0.750000
vt 0.375000 1.000000
vt 0.625000 1.000000
vt 0.125000 0.500000
vt 0.125000 0.750000
vt 0.875000 0.750000
vt 0.875000 0.500000
vn 0.0000 0.0000 -1.0000
vn 1.0000 0.0000 0.0000
vn 0.0000 0.0000 1.0000
vn -1.0000 0.0000 0.0000
vn 0.0000 1.0000 0.0000
vn 0.0000 -1.0000 0.0000
usemtl Material.011
s off
f 137/249/97 139/250/97 140/251/97 138/252/97
f 139/250/98 143/253/98 144/254/98 140/251/98
f 143/253/99 141/255/99 142/256/99 144/254/99
f 141/255/100 137/257/100 138/258/100 142/256/100
f 139/259/101 137/260/101 141/255/101 143/253/101
f 144/254/102 142/256/102 138/261/102 140/262/102
o Cube.017_Cube.021
v -0.734851 1.064282 0.284764
v -0.734851 -0.228817 0.284764
v -0.714724 1.064282 0.284764
v -0.714724 -0.228817 0.284764
v -0.734851 1.064282 0.313522
v -0.734851 -0.228817 0.313522
v -0.714724 1.064282 0.313522
v -0.714724 -0.228817 0.313522
vt 0.375000 0.000000
vt 0.375000 0.250000
vt 0.625000 0.250000
vt 0.625000 0.000000
vt 0.375000 0.500000
vt 0.625000 0.500000
vt 0.375000 0.750000
vt 0.625000 0.750000
vt 0.375000 1.000000
vt 0.625000 1.000000
vt 0.125000 0.500000
vt 0.125000 0.750000
vt 0.875000 0.750000
vt 0.875000 0.500000
vn 0.0000 0.0000 -1.0000
vn 1.0000 0.0000 0.0000
vn 0.0000 0.0000 1.0000
vn -1.0000 0.0000 0.0000
vn 0.0000 1.0000 0.0000
vn 0.0000 -1.0000 0.0000
usemtl Material.011
s off
f 145/263/103 147/264/103 148/265/103 146/266/103
f 147/264/104 151/267/104 152/268/104 148/265/104
f 151/267/105 149/269/105 150/270/105 152/268/105
f 149/269/106 145/271/106 146/272/106 150/270/106
f 147/273/107 145/274/107 149/269/107 151/267/107
f 152/268/108 150/270/108 146/275/108 148/276/108
